<ttFont>
          <CharString index="0">
            rmoveto
            -103 callsubr
            -1129 vmoveto
            336 225 246 389 -93 callsubr
            hvcurveto
            return
          </CharString>
          <CharString index="1">
            1098 -107 callsubr
            return
          </CharString>
          <CharString index="2">
            1304 141 rmoveto
            -195 hlineto
            -369 1065 rlineto
            -399 -141 207 hlineto
            -340 -74 callsubr
            476 141 -130 hlineto
            70 187 rlineto
            442 hlineto
            64 -187 rlineto
            -129 -141 498 hlineto
            -645 999 rmoveto
            163 -530 rlineto
            -342 hlineto
            return
          </CharString>
          <CharString index="3">
            71 callsubr
            671 -106 callsubr
            return
          </CharString>
          <CharString index="4">
            260 127 -183 -311 -311 -127 -184 -260 -260 -127 184 311 311 127 183 260 hvcurveto
            return
          </CharString>
          <CharString index="5">
            rmoveto
            -203 -65 122 236 hvcurveto
            598 6 callsubr
            -492 -141 197 -584 vlineto
            -426 221 -86 211 219 234 86 426 vhcurveto
            584 196 141 -491 -141 131 -578 vlineto
            -235 -70 -143 -219 vhcurveto
            return
          </CharString>
          <CharString index="6">
            hstem
            110 174 774 -104 callsubr
            return
          </CharString>
          <CharString index="7">
            20 113 rlineto
            10 35 64 14 86 hhcurveto
            225 -18 -151 -103 hvcurveto
            -16 vlineto
            -265 2 rlineto
            -188 -154 -78 -190 2 hvcurveto
            -156 2 130 -117 221 hhcurveto
            return
          </CharString>
          <CharString index="8">
            rmoveto
            23 callsubr
            -481 hlineto
            2 412 rlineto
            383 141 -383 371 438 -44 callsubr
            -908 -63 callsubr
            951 hlineto
            106 315 rlineto
            return
          </CharString>
          <CharString index="9">
            -67 callsubr
            109 -30 callsubr
            -201 106 -219 hhcurveto
            -52 callsubr
            hvcurveto
            2 809 rmoveto
            154 81 -86 -36 callsubr
            92 162 hhcurveto
            return
          </CharString>
          <CharString index="10">
            273 641 rmoveto
            -100 callsubr
            121 98 43 47 69 hvcurveto
            return
          </CharString>
          <CharString index="11">
            -66 callsubr
            293 -183 178 -272 -1 callsubr
            -178 51 callsubr
            -176 31 callsubr
            192 97 -125 -215 -215 -97 -123 -192 -26 callsubr
            125 189 hvcurveto
            return
          </CharString>
          <CharString index="12">
            -25 callsubr
            680 109 -102 callsubr
            return
          </CharString>
          <CharString index="13">
            -48 callsubr
            18 callsubr
            hintmask 10111100
            -97 callsubr
            hintmask 01111100
            -87 callsubr
            hintmask 10111100
            -84 callsubr
            return
          </CharString>
          <CharString index="14">
            389 -227 244 -336 -332 -227 -244 -389 -389 229 -246 332 return
          </CharString>
          <CharString index="15">
            48 callsubr
            1019 360 -99 callsubr
            return
          </CharString>
          <CharString index="16">
            rmoveto
            -139 94 -127 -94 -88 -72 67 -80 rcurveline
            156 119 55 -76 76 -51 139 -96 127 96 88 72 -67 80 rcurveline
            -156 -119 -55 76 -76 51 rrcurveto
            endchar
          </CharString>
          <CharString index="17">
            -72 callsubr
            -80 callsubr
          </CharString>
          <CharString index="18">
            -51 callsubr
            -32 27 -23 vhcurveto
            20 -16 27 -8 24 -3 rrcurveto
            -32 -73 -62 -90 0 vvcurveto
            72 -62 -64 callsubr
            return
          </CharString>
          <CharString index="19">
            hstem
            94 166 vstem
            541 -31 -98 callsubr
            return
          </CharString>
          <CharString index="20">
            277 -94 41 131 -195 64 rlineto
            356 vlineto
            170 -4 223 -368 -2 callsubr
            -57 0 vhcurveto
            -33 -186 rlineto
            return
          </CharString>
          <CharString index="21">
            -44 -15 callsubr
            -96 callsubr
            return
          </CharString>
          <CharString index="22">
            vstem
            401 84 rmoveto
            -89 callsubr
            return
          </CharString>
          <CharString index="23">
            299 -566 -45 callsubr
            260 -2 rlineto
            -201 vlineto
            -33 -43 -80 -45 -121 hhcurveto
            return
          </CharString>
          <CharString index="24">
            -54 callsubr
            hstem
            -105 callsubr
            return
          </CharString>
          <CharString index="25">
            rmoveto
            37 -66 272 136 272 -136 37 66 -309 219 rlineto
            return
          </CharString>
          <CharString index="26">
            551 rmoveto
            0 98 -94 172 203 76 112 115 96 -56 62 -59 22 vhcurveto
            49 25 47 53 78 vvcurveto
            131 -108 86 -154 -149 -82 -76 -16 -17 vhcurveto
            91 -88 rlineto
            4 2 57 72 96 hhcurveto
            60 -3 79 -20 -90 vvcurveto
            -80 -51 -29 -82 vhcurveto
            -94 -106 68 hlineto
            57 121 6 -129 -66 -51 -55 -99 -114 -82 74 0 hvcurveto
            return
          </CharString>
          <CharString index="27">
            364 hmoveto
            62 -53 53 -61 -64 -51 -53 -62 -63 51 -52 64 61 53 52 63 vhcurveto
            endchar
          </CharString>
          <CharString index="28">
            rmoveto
            69 callsubr
            -197 -141 555 141 -196 13 callsubr
            192 141 -553 hlineto
            return
          </CharString>
          <CharString index="29">
            rmoveto
            -96 79 -80 97 96 80 80 96 96 -80 80 -96 -97 -79 -80 -96 vhcurveto
            96 hmoveto
            43 37 37 43 43 37 -37 -43 -43 -37 -37 -43 -43 -37 37 43 vhcurveto
            endchar
          </CharString>
          <CharString index="30">
            30 35 callsubr
            146 hlineto
            368 -887 -16 -47 rlineto
            -129 -45 -74 -21 -45 hhcurveto
            -39 -74 19 0 hvcurveto
            -26 -123 rlineto
            -2 72 -19 59 154 99 82 172 62 vhcurveto
            340 955 rlineto
            148 20 callsubr
            113 hlineto
            -246 -693 -276 693 rlineto
            116 127 -426 hlineto
            return
          </CharString>
          <CharString index="31">
            52 callsubr
            99 1065 -79 callsubr
            return
          </CharString>
          <CharString index="32">
            hstem
            599 163 vstem
            22 39 callsubr
            hlineto
            406 -504 -2 -420 rlineto
            -9 callsubr
            4 426 379 498 -60 callsubr
            return
          </CharString>
          <CharString index="33">
            -924 rlineto
            -38 callsubr
            return
          </CharString>
          <CharString index="34">
            rmoveto
            23 62 67 45 74 49 rrcurveto
            102 70 111 78 129 vvcurveto
            131 -104 94 -166 -160 -86 -103 0 vhcurveto
            86 -81 rlineto
            0 65 79 97 104 37 -65 -55 -86 -82 -58 -84 -59 vhcurveto
            -92 -64 -107 -75 -30 -134 22 -61 rcurveline
            469 hlineto
            101 164 -91 45 -65 -105 rlineto
            return
          </CharString>
          <CharString index="35">
            rmoveto
            62 -53 53 -62 -63 -52 -53 -62 -63 52 -52 63 62 53 52 63 vhcurveto
            return
          </CharString>
          <CharString index="36">
            -7 callsubr
            -102 hhcurveto
            -258 -150 184 311 305 145 189 263 120 -39 callsubr
            -270 2 rlinecurve
            -353 2 -229 -250 2 -385 return
          </CharString>
          <CharString index="37">
            68 -60 59 -67 -34 callsubr
            67 60 58 69 vhcurveto
            return
          </CharString>
          <CharString index="38">
            -42 callsubr
            924 141 return
          </CharString>
          <CharString index="39">
            -606 -6 callsubr
            -85 callsubr
            endchar
          </CharString>
          <CharString index="40">
            rmoveto
            248 139 -55 callsubr
            -176 -96 return
          </CharString>
          <CharString index="41">
            53 callsubr
            574 -22 callsubr
            541 -31 rmoveto
            272 183 176 293 return
          </CharString>
          <CharString index="42">
            1374 -82 callsubr
            return
          </CharString>
          <CharString index="43">
            rlineto
            0 182 174 -2 158 vhcurveto
            return
          </CharString>
          <CharString index="44">
            7 callsubr
            hlineto
            -2 -74 callsubr
            return
          </CharString>
          <CharString index="45">
            rmoveto
            18 -73 516 96 -37 149 rlineto
            endchar
          </CharString>
          <CharString index="46">
            rmoveto
            167 137 -2 -465 rlineto
            -204 -104 512 104 -185 hlineto
            2 641 rlineto
            -80 hlineto
            -278 -229 rlineto
            return
          </CharString>
          <CharString index="47">
            rlineto
            196 141 -485 -141 113 hlineto
            -275 -360 -289 360 rlineto
            109 141 -490 hlineto
            return
          </CharString>
          <CharString index="48">
            172 -582 hlineto
            0 -110 -70 -148 -176 -41 103 145 vhcurveto
            531 -332 -127 vlineto
            return
          </CharString>
          <CharString index="49">
            rmoveto
            -37 -150 516 -96 18 74 rlineto
            endchar
          </CharString>
          <CharString index="50">
            rmoveto
            36 -66 478 217 -72 135 rlineto
            return
          </CharString>
          <CharString index="51">
            17 -27 8 -24 2 rrcurveto
            33 73 61 91 0 vvcurveto
            -72 61 rlineto
            0 -182 -174 2 -158 vhcurveto
            return
          </CharString>
          <CharString index="52">
            133 2 hvcurveto
            -74 97 rlineto
            0 -121 -101 -190 return
          </CharString>
          <CharString index="53">
            193 -42 callsubr
            187 141 596 141 return
          </CharString>
          <CharString index="54">
            vstem
            393 1100 37 callsubr
            -33 27 -22 vhcurveto
            20 -16 27 -9 24 -2 rrcurveto
            -32 -73 -62 -91 0 vvcurveto
            72 -61 -64 callsubr
            return
          </CharString>
          <CharString index="55">
            -33 callsubr
            -293 183 -178 264 return
          </CharString>
          <CharString index="56">
            -19 callsubr
            -57 -51 -76 -37 16 return
          </CharString>
          <CharString index="57">
            131 678 131 return
          </CharString>
          <CharString index="58">
            -76 66 -63 73 76 58 51 76 37 -17 33 -26 22 vhcurveto
            -21 -56 callsubr
            endchar
          </CharString>
          <CharString index="59">
            -86 17 callsubr
            -114 -21 415 129 269 131 return
          </CharString>
          <CharString index="60">
            -102 -146 vhcurveto
            -403 -92 21 callsubr
            -172 436 vlineto
            230 return
          </CharString>
          <CharString index="61">
            172 -437 hlineto
            -229 105 -117 262 137 117 62 28 47 vhcurveto
            return
          </CharString>
          <CharString index="62">
            rmoveto
            -105 -92 45 99 121 88 16 93 hvcurveto
            return
          </CharString>
          <CharString index="63">
            34 callsubr
            135 45 -106 315 rlineto
            return
          </CharString>
          <CharString index="64">
            140 989 139 return
          </CharString>
          <CharString index="65">
            0 141 return
          </CharString>
          <CharString index="66">
            -68 100 rlineto
            0 -125 -88 -151 -189 -96 125 57 callsubr
            96 51 -18 -8 17 vhcurveto
            26 -142 rlineto
            endchar
          </CharString>
          <CharString index="67">
            -37 callsubr
            59 129 146 301 -101 60 -237 -527 rlineto
            -61 356 return
          </CharString>
          <CharString index="68">
            78 -27 -22 41 hvcurveto
            41 -177 141 31 -45 238 -2 2 -106 92 return
          </CharString>
          <CharString index="69">
            -195 -141 return
          </CharString>
          <CharString index="70">
            rmoveto
            100 vlineto
            -117 -2 2 338 rlineto
            -119 -338 -223 hlineto
            return
          </CharString>
          <CharString index="71">
            -164 2 hvcurveto
            -518 -2 rlineto
            160 25 94 return
          </CharString>
          <CharString index="72">
            107 -42 callsubr
            412 141 371 141 return
          </CharString>
          <CharString index="73">
            -70 -57 -59 -68 -69 57 -58 70 return
          </CharString>
          <CharString index="74">
            -1 callsubr
            -176 -293 return
          </CharString>
          <CharString index="75">
            0 127 625 127 return
          </CharString>
          <CharString index="76">
            209 -14 callsubr
            return
          </CharString>
          <CharString index="77">
            190 -11 vhcurveto
            660 4 rlineto
            400 41 return
          </CharString>
          <CharString index="78">
            66 callsubr
            hintmask 11110000
            -2 callsubr
            hlineto
            hintmask 11101000
            38 callsubr
            hintmask 11110000
            12 callsubr
            return
          </CharString>
          <CharString index="79">
            19 callsubr
            245 444 rmoveto
            262 369 -102 72 -326 -441 326 -440 102 72 rlineto
            return
          </CharString>
          <CharString index="80">
            -24 callsubr
            719 -332 vlineto
            return
          </CharString>
          <CharString index="81">
            -189 -96 123 14 callsubr
            return
          </CharString>
          <CharString index="82">
            hstem
            248 164 557 -22 callsubr
            return
          </CharString>
          <CharString index="83">
            279 -96 41 131 -193 66 rlineto
            return
          </CharString>
          <CharString index="84">
            -69 callsubr
            hstem
            return
          </CharString>
          <CharString index="85">
            164 vstem
            return
          </CharString>
          <CharString index="86">
            rmoveto
            -131 hlineto
            -596 -1491 rlineto
            133 hlineto
            return
          </CharString>
          <CharString index="87">
            246 32 callsubr
            return
          </CharString>
          <CharString index="88">
            76 -66 63 -73 -76 return
          </CharString>
          <CharString index="89">
            rmoveto
            186 hlineto
            287 159 -86 -395 -289 -159 -154 -308 hvcurveto
            -165 return
          </CharString>
          <CharString index="90">
            -105 17 callsubr
            301 126 251 131 return
          </CharString>
          <CharString index="91">
            -426 127 268 -50 callsubr
            return
          </CharString>
          <CharString index="92">
            -31 -50 callsubr
            return
          </CharString>
          <CharString index="93">
            -31 -43 callsubr
            return
          </CharString>
          <CharString index="94">
            332 -160 160 return
          </CharString>
          <CharString index="95">
            184 63 41 76 76 63 -41 -184 -183 -63 -41 -76 -76 -63 41 183 vhcurveto
            return
          </CharString>
          <CharString index="96">
            -47 -102 hhcurveto
            -189 -96 146 215 182 111 135 174 hvcurveto
            endchar
          </CharString>
          <CharString index="97">
            rmoveto
            67 -60 60 -67 -4 callsubr
            67 60 58 callsubr
          </CharString>
          <CharString index="98">
            -193 -141 547 141 -192 hlineto
            return
          </CharString>
          <CharString index="99">
            106 17 callsubr
            -116 -21 789 127 return
          </CharString>
          <CharString index="100">
            315 rmoveto
            -39 -163 rlineto
            -19 -51 -86 -24 return
          </CharString>
          <CharString index="101">
            -227 -3 callsubr
            129 272 return
          </CharString>
          <CharString index="102">
            21 callsubr
            -92 582 vlineto
            0 return
          </CharString>
          <CharString index="103">
            -70 -57 -60 -67 -70 57 -57 70 return
          </CharString>
          <CharString index="104">
            -21 471 -20 hstem
            return
          </CharString>
          <CharString index="105">
            -170 -127 return
          </CharString>
          <CharString index="106">
            -264 -183 return
          </CharString>
          <CharString index="107">
            -293 183 return
          </CharString>
          <CharString index="108">
            92 -162 -160 -112 -92 -268 -267 112 -92 160 162 return
          </CharString>
          <CharString index="109">
            76 rmoveto
            102 -72 326 440 -326 441 -102 -72 262 -369 rlineto
            return
          </CharString>
          <CharString index="110">
            145 76 0 hvcurveto
            51 238 rlineto
            endchar
          </CharString>
          <CharString index="111">
            rmoveto
            86 hlineto
            39 381 rlineto
            -164 hlineto
            return
          </CharString>
          <CharString index="112">
            330 -330 500 -330 160 return
          </CharString>
          <CharString index="113">
            131 141 return
          </CharString>
          <CharString index="114">
            -141 195 return
          </CharString>
          <CharString index="115">
            67 -59 60 -68 -4 callsubr
            68 59 57 70 vhcurveto
            return
          </CharString>
          <CharString index="116">
            hhcurveto
            -250 -197 -186 -264 0 callsubr
            -197 264 return
          </CharString>
          <CharString index="117">
            340 264 223 361 475 -251 147 -369 hvcurveto
            return
          </CharString>
          <CharString index="118">
            789 -3 callsubr
            return
          </CharString>
          <CharString index="119">
            -170 752 -330 hlineto
            return
          </CharString>
          <CharString index="120">
            hlineto
            4 924 rlineto
            return
          </CharString>
          <CharString index="121">
            215 215 96 return
          </CharString>
          <CharString index="122">
            hstemhm
            41 -13 callsubr
            303 -13 callsubr
            return
          </CharString>
          <CharString index="123">
            rmoveto
            -150 hlineto
            -671 -1474 rlineto
            151 hlineto
            endchar
          </CharString>
          <CharString index="124">
            -31 131 return
          </CharString>
          <CharString index="125">
            hstemhm
            80 164 441 159 return
          </CharString>
          <CharString index="126">
            25 -21 881 -20 hstem
            return
          </CharString>
          <CharString index="127">
            127 -410 -127 return
          </CharString>
          <CharString index="128">
            -127 424 127 return
          </CharString>
          <CharString index="129">
            230 135 229 return
          </CharString>
          <CharString index="130">
            -82 -219 rlineto
            return
          </CharString>
          <CharString index="131">
            -172 -127 return
          </CharString>
          <CharString index="132">
            2 809 rmoveto
            return
          </CharString>
          <CharString index="133">
            -537 -254 129 1331 129 hstemhm
            return
          </CharString>
          <CharString index="134">
            17 callsubr
            299 126 253 131 hstem
            return
          </CharString>
          <CharString index="135">
            0 127 651 131 return
          </CharString>
          <CharString index="136">
            -80 52 0 hvcurveto
            550 vlineto
            return
          </CharString>
          <CharString index="137">
            21 -21 1065 40 callsubr
            return
          </CharString>
          <CharString index="138">
            264 hvcurveto
            25 callsubr
            return
          </CharString>
          <CharString index="139">
            42 callsubr
            956 141 return
          </CharString>
          <CharString index="140">
            96 160 96 return
          </CharString>
          <CharString index="141">
            hlineto
            82 -219 return
          </CharString>
          <CharString index="142">
            752 rmoveto
            return
          </CharString>
          <CharString index="143">
            -247 -21 735 113 755 -20 hstem
            return
          </CharString>
          <CharString index="144">
            rmoveto
            -51 callsubr
            return
          </CharString>
          <CharString index="145">
            500 127 hlineto
            return
          </CharString>
          <CharString index="146">
            41 callsubr
            172 return
          </CharString>
          <CharString index="147">
            141 hstem
            return
          </CharString>
          <CharString index="148">
            1065 rmoveto
            return
          </CharString>
          <CharString index="149">
            -31 140 return
          </CharString>
          <CharString index="150">
            76 782 rmoveto
            197 -67 rlineto
            -588 return
          </CharString>
          <CharString index="151">
            -551 -235 -21 1591 -20 hstem
            return
          </CharString>
          <CharString index="152">
            -311 106 -43 -127 194 -67 rlineto
            return
          </CharString>
          <CharString index="153">
            403 142 hstem
            138 403 rmoveto
            return
          </CharString>
          <CharString index="154">
            311 305 141 -305 309 return
          </CharString>
          <CharString index="155">
            hstem
            293 -22 callsubr
            return
          </CharString>
          <CharString index="156">
            rmoveto
            -43 221 rlineto
            0 return
          </CharString>
          <CharString index="157">
            -20 hstem
            223 160 return
          </CharString>
          <CharString index="158">
            -293 0 callsubr
            return
          </CharString>
          <CharString index="159">
            hstem
            294 -22 callsubr
            return
          </CharString>
          <CharString index="160">
            hstem
            94 164 return
          </CharString>
          <CharString index="161">
            rlineto
            2 84 -76 133 hhcurveto
            117 return
          </CharString>
          <CharString index="162">
            55 -457 125 1084 127 return
          </CharString>
          <CharString index="163">
            -299 rmoveto
            -172 303 hlineto
            -20 return
          </CharString>
          <CharString index="164">
            14 callsubr
            123 189 return
          </CharString>
          <CharString index="165">
            57 70 vhcurveto
            endchar
          </CharString>
          <CharString index="166">
            141 hstemhm
            return
          </CharString>
          <CharString index="167">
            200 endchar
          </CharString>
          <CharString index="168">
            401 rlineto
            -129 hlineto
            hintmask 10100000
            return
          </CharString>
          <CharString index="169">
            254 -196 140 hintmask 11010000
            return
          </CharString>
          <CharString index="170">
            74 -15 92 hhcurveto
            264 182 return
          </CharString>
          <CharString index="171">
            -247 -21 1474 -20 hstem
            return
          </CharString>
          <CharString index="172">
            -141 191 -924 -191 return
          </CharString>
          <CharString index="173">
            170 -625 hlineto
            return
          </CharString>
          <CharString index="174">
            475 72 callsubr
            return
          </CharString>
          <CharString index="175">
            1335 rmoveto
            return
          </CharString>
          <CharString index="176">
            195 -924 return
          </CharString>
          <CharString index="177">
            194 141 return
          </CharString>
          <CharString index="178">
            174 vstem
            return
          </CharString>
          <CharString index="179">
            160 vstem
            return
          </CharString>
        <CharString name=".notdef">
          843 1309 -20 hstem
          1165 532 rmoveto
          -159 -180 -11 -2 -57 45 -2 13 rlinecurve
          147 190 -186 147 12 33 27 31 14 16 rlinecurve
          39 -26 78 -58 82 -65 151 190 rcurveline
          27 -12 33 -27 16 -14 -26 -39 -58 -72 -65 -88 80 -71 71 -58 33 -30 2 -11 -47 -57 -10 -2 rrcurveto
          579 776 rmoveto
          4 2 -2 2 -4 hhcurveto
          -143 -6 51 142 rlineto
          2 vlineto
          4 -4 0 -2 vhcurveto
          -152 -54 rlineto
          -2 vlineto
          9 -26 -33 6 -37 hhcurveto
          -117 -79 -56 -145 -82 hvcurveto
          -60 -88 -164 -12 -467 -95 -524 46 rcurveline
          -26 -5 -29 -17 19 hvcurveto
          88 -71 147 -45 146 -49 76 -125 122 -211 240 -131 -2 -17 -2 -30 18 -19 rrcurveto
          -16 -14 -10 0 -15 vvcurveto
          -22 84 -37 69 -57 vhcurveto
          -43 -2 -41 0 -32 -23 rrcurveto
          -6 2 -4 4 -6 vhcurveto
          51 12 49 4 43 -6 49 -10 33 -43 27 -43 10 -2 4 4 2 6 -10 37 -19 26 -26 17 55 -8 12 -9 33 -30 rrcurveto
          6 6 4 -2 10 vvcurveto
          -47 63 -55 -6 -45 11 -57 47 -60 34 -55 35 6 6 10 7 15 8 32 -6 17 37 6 16 rrcurveto
          -6 39 35 -2 39 hhcurveto
          55 hlineto
          -8 2 14 -31 23 hhcurveto
          -15 -12 -8 -11 -8 vvcurveto
          -16 90 -13 88 -49 vhcurveto
          -41 -14 -20 2 -27 -31 2 -14 4 8 7 -6 rrcurveto
          20 47 12 9 45 hhcurveto
          51 2 41 -29 39 -39 10 2 7 4 2 6 -23 33 -27 14 -26 15 51 6 29 -14 39 -19 rrcurveto
          6 6 2 -2 11 vvcurveto
          47 -64 -63 -11 -43 hhcurveto
          -64 31 -67 25 -64 22 25 25 rcurveline
          31 6 35 14 hvcurveto
          430 293 61 321 2 203 2 -2 rcurveline
          endchar
        </CharString>
        <CharString name=".null">
          -601 endchar
        </CharString>
        <CharString name="A">
          -83 callsubr
          endchar
        </CharString>
        <CharString name="AE">
          723 -42 callsubr
          187 141 63 142 391 59 callsubr
          964 163 -163 493 hintmask 11111000
          769 hmoveto
          895 hlineto
          106 315 -135 45 23 callsubr
          -426 391 hlineto
          hintmask 11110100
          330 142 -328 391 383 -44 callsubr
          -1031 -141 211 hlineto
          -585 -924 rlineto
          -205 -141 491 141 -120 hlineto
          116 187 rlineto
          463 -187 -194 hlineto
          196 924 rmoveto
          -2 -596 rlineto
          -375 hlineto
          373 596 rlineto
          endchar
        </CharString>
        <CharString name="Aacute">
          -54 callsubr
          346 -20 hstem
          -105 callsubr
          79 911 -62 callsubr
        </CharString>
        <CharString name="Acircumflex">
          193 312 307 65 195 endchar
        </CharString>
        <CharString name="Acute">
          -465 1328 -21 245 -20 hstem
          66 1380 -62 callsubr
        </CharString>
        <CharString name="Adieresis">
          193 300 356 65 60 callsubr
        </CharString>
        <CharString name="Agrave">
          -54 callsubr
          349 -20 hstem
          -105 callsubr
          -223 1086 -58 callsubr
        </CharString>
        <CharString name="Aring">
          -54 callsubr
          90 33 callsubr
          hstem
          483 33 callsubr
          vstem
          -105 callsubr
          3 1003 -78 callsubr
        </CharString>
        <CharString name="Atilde">
          -83 callsubr
          179 1010 -91 callsubr
        </CharString>
        <CharString name="B">
          98 0 143 406 123 393 59 callsubr
          293 163 441 174 -135 174 hintmask 11111000
          643 41 callsubr
          133 121 2 -178 -182 -127 -35 -57 hvcurveto
          -256 393 hlineto
          254 -516 rmoveto
          hintmask 11110100
          147 78 -64 -129 -145 -88 -68 -150 hvcurveto
          -243 hlineto
          2 406 rlineto
          -359 657 rmoveto
          -141 69 callsubr
          -38 callsubr
          649 vlineto
          256 107 156 200 113 -74 111 -110 43 hvcurveto
          hintmask 11111000
          67 45 78 108 115 vvcurveto
          229 -141 86 -310 vhcurveto
          endchar
        </CharString>
        <CharString name="C">
          83 -14 callsubr
          hstem
          110 71 callsubr
          970 -71 callsubr
          rrcurveto
          -389 2 227 -246 353 hhcurveto
          221 3 callsubr
        </CharString>
        <CharString name="Ccedilla">
          84 -457 95 133 90 108 -43 callsubr
          hstemhm
          112 174 274 332 -121 121 hintmask 11111100
          972 -71 callsubr
          2 -338 170 -229 276 -53 rrcurveto
          -213 80 vlineto
          hintmask 11111010
          115 16 -27 -39 -37 -32 -30 -76 -92 -80 57 0 hvcurveto
          -49 -74 rlineto
          -16 22 84 -62 117 hhcurveto
          121 106 47 115 109 -82 47 -143 hvcurveto
          -8 110 hlineto
          -2 10 12 0 13 hhcurveto
          221 3 callsubr
        </CharString>
        <CharString name="D">
          244 -23 callsubr
          293 164 632 71 callsubr
          98 1206 rmoveto
          -141 69 callsubr
          -38 callsubr
          561 vlineto
          10 callsubr
          -186 -141 -18 callsubr
          924 hlineto
          endchar
        </CharString>
        <CharString name="E">
          -35 callsubr
          -92 callsubr
          endchar
        </CharString>
        <CharString name="Eacute">
          -35 callsubr
          346 -20 -92 callsubr
          -763 1065 -62 callsubr
        </CharString>
        <CharString name="Ecircumflex">
          -35 callsubr
          387 -20 48 callsubr
          300 -65 callsubr
          410 -1233 -99 callsubr
          endchar
        </CharString>
        <CharString name="Edieresis">
          107 259 315 69 60 callsubr
        </CharString>
        <CharString name="Egrave">
          -35 callsubr
          355 -20 -92 callsubr
          -993 1246 -58 callsubr
        </CharString>
        <CharString name="Eth">
          248 -42 callsubr
          416 131 377 40 callsubr
          297 164 632 71 callsubr
          102 557 rmoveto
          195 -416 -38 callsubr
          561 hlineto
          10 callsubr
          -545 7 callsubr
          -377 -195 hlineto
          359 377 -18 callsubr
          416 231 131 -231 hlineto
          endchar
        </CharString>
        <CharString name="Euro">
          294 42 callsubr
          284 142 122 142 299 139 hstem
          1171 -7 callsubr
          -103 hhcurveto
          -192 -133 102 182 -53 hvcurveto
          403 hlineto
          33 142 rlineto
          -463 hlineto
          -2 22 0 23 24 vvcurveto
          53 494 vlineto
          32 142 rlineto
          -504 hlineto
          188 52 133 111 200 hhcurveto
          121 -39 callsubr
          -271 2 rlinecurve
          -288 2 -207 -168 -64 -272 rrcurveto
          -219 hlineto
          -33 -142 rlineto
          228 -41 hlineto
          -28 2 -27 2 -26 vhcurveto
          -197 hlineto
          -35 -142 rlineto
          258 hlineto
          -264 70 201 -160 284 hhcurveto
          222 3 callsubr
        </CharString>
        <CharString name="F">
          10 -42 callsubr
          400 141 383 59 callsubr
          293 161 -161 501 hintmask 11110000
          1111 891 rmoveto
          -106 315 rlineto
          -906 -63 callsubr
          607 141 -250 400 hlineto
          hintmask 11101000
          340 141 -338 383 438 34 callsubr
          rlineto
          endchar
        </CharString>
        <CharString name="G">
          116 42 callsubr
          344 141 504 139 hstemhm
          110 174 410 415 -153 153 hintmask 11111000
          694 453 rmoveto
          hintmask 11110100
          262 -263 hlineto
          -4 -125 -77 -174 -207 -166 137 358 318 137 176 236 147 88 -31 -20 45 vhcurveto
          41 -175 142 31 -46 238 rlineto
          0 -149 96 -270 -312 -233 -244 -389 -430 270 -205 277 305 147 158 2 vhcurveto
          465 vlineto
          hintmask 11111000
          -415 hlineto
          endchar
        </CharString>
        <CharString name="Grave">
          -447 1336 -21 246 -20 hstem
          113 1561 -58 callsubr
        </CharString>
        <CharString name="H">
          369 -42 callsubr
          406 141 377 59 callsubr
          99 490 -296 162 462 485 -356 163 hintmask 11101100
          915 hmoveto
          487 141 -195 hlineto
          5 924 rlineto
          70 callsubr
          -489 -141 131 hlineto
          hintmask 11101010
          -2 -377 rlineto
          -590 hlineto
          2 377 rlineto
          hintmask 11110010
          6 callsubr
          -490 -63 callsubr
          488 141 -131 hlineto
          2 406 rlineto
          590 -406 -131 hlineto
          endchar
        </CharString>
        <CharString name="I">
          0 141 924 141 -76 callsubr
          endchar
        </CharString>
        <CharString name="Iacute">
          -69 callsubr
          346 -20 -76 callsubr
          157 174 -62 callsubr
        </CharString>
        <CharString name="Icircumflex">
          -69 callsubr
          387 -20 52 callsubr
          63 -65 callsubr
          -273 -528 -79 callsubr
          endchar
        </CharString>
        <CharString name="Idieresis">
          15 336 73 60 callsubr
        </CharString>
        <CharString name="Igrave">
          -69 callsubr
          320 -20 -76 callsubr
          -118 320 -58 callsubr
        </CharString>
        <CharString name="J">
          -148 32 callsubr
          hstem
          568 163 vstem
          339 41 callsubr
          230 hlineto
          -2 -557 rlineto
          -127 2 -92 -23 -64 vhcurveto
          -28 -86 -95 -33 -73 3 -70 2 -59 30 2 -2 -43 183 rcurveline
          -140 -33 52 -238 rlineto
          -2 2 102 -80 162 hhcurveto
          155 148 70 149 43 hvcurveto
          22 80 0 103 3 133 4 561 rcurveline
          192 141 -586 hlineto
          endchar
        </CharString>
        <CharString name="K">
          236 -42 callsubr
          398 141 385 59 callsubr
          98 486 -293 163 320 504 hintmask 11110100
          774 hmoveto
          551 141 -205 hlineto
          -338 504 310 420 rlineto
          186 141 -504 -141 142 hlineto
          -283 -385 rlineto
          -180 385 6 callsubr
          -486 -141 hlineto
          hintmask 11101100
          193 -924 hlineto
          hintmask 11110100
          -193 -141 486 141 -129 hlineto
          -2 398 rlineto
          205 hlineto
          264 -398 rlineto
          -148 hlineto
          endchar
        </CharString>
        <CharString name="L">
          -5 -23 callsubr
          330 163 vstem
          958 358 rmoveto
          -80 -217 rlineto
          -387 13 callsubr
          233 141 -631 -141 234 hlineto
          -2 -924 rlineto
          -232 -141 889 hlineto
          107 313 rlineto
          endchar
        </CharString>
        <CharString name="M">
          641 -69 callsubr
          hstemhm
          102 471 -282 150 746 489 -358 164 hintmask 11010100
          977 145 rmoveto
          250 654 91 266 rlineto
          -924 vlineto
          hintmask 11011000
          -131 -141 489 141 hlineto
          hintmask 11010100
          -194 924 hlineto
          hintmask 11011000
          70 callsubr
          -436 hlineto
          -340 -878 -344 878 rlineto
          hintmask 11101000
          -454 -141 190 hlineto
          -2 -74 callsubr
          478 141 -134 hlineto
          5 924 94 -262 262 -658 rlineto
          endchar
        </CharString>
        <CharString name="N">
          374 -23 callsubr
          291 165 618 -22 callsubr
          902 39 callsubr
          -815 hlineto
          -524 956 rlineto
          -451 -141 191 hlineto
          2 -74 callsubr
          533 141 -172 hlineto
          -4 924 583 -1065 rlineto
          201 1065 197 141 -533 hlineto
          endchar
        </CharString>
        <CharString name="Ntilde">
          374 181 295 78 196 endchar
        </CharString>
        <CharString name="O">
          -31 callsubr
          -101 callsubr
          endchar
        </CharString>
        <CharString name="OE">
          691 -42 callsubr
          412 141 373 139 hstem
          114 174 592 -22 callsubr
          1603 360 rmoveto
          23 callsubr
          -477 412 381 141 -379 371 434 34 callsubr
          135 45 -107 315 rlineto
          -856 hlineto
          -368 -252 -127 -475 -381 264 -223 340 hvcurveto
          913 hlineto
          107 315 rlineto
          -858 35 callsubr
          -926 vlineto
          -125 -2 rlineto
          -307 -2 -160 158 309 vvcurveto
          406 172 57 274 vhcurveto
          endchar
        </CharString>
        <CharString name="Oacute">
          -31 callsubr
          315 -20 -101 callsubr
          -129 1411 -62 callsubr
        </CharString>
        <CharString name="Ocircumflex">
          -31 callsubr
          356 -20 hstem
          110 174 774 71 callsubr
          356 -65 callsubr
          6 -495 -107 callsubr
          endchar
        </CharString>
        <CharString name="Odieresis">
          -31 callsubr
          77 230 hstem
          110 174 88 22 callsubr
          92 -104 callsubr
          -69 1460 -90 callsubr
        </CharString>
        <CharString name="Ograve">
          -31 callsubr
          324 -20 -101 callsubr
          -403 1592 -58 callsubr
        </CharString>
        <CharString name="Oslash">
          207 -141 250 -140 -43 callsubr
          -139 235 hstemhm
          109 174 774 174 hintmask 01101100
          670 -106 callsubr
          hintmask 10011100
          434 1364 16 callsubr
        </CharString>
        <CharString name="Otilde">
          209 75 324 79 196 endchar
        </CharString>
        <CharString name="P">
          32 -42 callsubr
          305 144 475 40 callsubr
          289 166 463 71 callsubr
          455 590 rmoveto
          475 184 vlineto
          180 99 -37 -200 -202 -99 -36 -180 hvcurveto
          2 -144 rmoveto
          334 117 134 249 248 -117 129 -334 hvcurveto
          -543 65 callsubr
          -141 600 141 -245 305 hlineto
          endchar
        </CharString>
        <CharString name="Q">
          211 -141 -21 131 -43 callsubr
          hstem
          110 174 774 71 callsubr
          671 -31 rmoveto
          117 104 31 55 86 hvcurveto
          256 -217 109 135 -273 162 rlineto
          103 111 59 160 198 vvcurveto
          -93 callsubr
          vhcurveto
          1129 vmoveto
          -103 callsubr
          endchar
        </CharString>
        <CharString name="R">
          146 -42 callsubr
          331 144 449 59 callsubr
          99 484 -293 166 455 174 hintmask 11101100
          456 616 rmoveto
          449 184 vlineto
          175 96 -37 -188 -190 -96 -34 -175 hvcurveto
          2 -144 rmoveto
          328 115 131 238 240 -115 125 -328 hvcurveto
          hintmask 11110100
          -543 -141 hlineto
          hintmask 11101100
          191 -924 hlineto
          hintmask 11110100
          -191 -141 484 141 -129 331 hlineto
          201 10 rmoveto
          264 -482 rlineto
          306 141 -187 hlineto
          -208 361 rlineto
          endchar
        </CharString>
        <CharString name="S">
          -2 42 callsubr
          991 137 hstem
          133 164 561 -22 callsubr
          858 330 rmoveto
          -164 -139 -57 -170 -121 -77 22 27 -83 vhcurveto
          -28 154 -136 -14 39 -249 rlineto
          -37 94 143 -43 195 hhcurveto
          263 184 109 274 178 -68 121 -272 41 hvcurveto
          -186 29 rlineto
          -121 18 -78 62 114 vvcurveto
          119 108 66 162 117 88 -15 -20 55 vhcurveto
          27 -164 135 14 -35 254 rlineto
          17 -31 -157 51 -201 hhcurveto
          -295 -137 -141 -185 -200 107 -128 256 -32 hvcurveto
          155 -21 rlineto
          180 -24 27 -88 -88 vvcurveto
          endchar
        </CharString>
        <CharString name="T">
          63 -42 callsubr
          729 336 -141 59 callsubr
          71 156 288 165 291 155 hintmask 11011100
          1126 870 rmoveto
          336 -1055 -336 156 vlineto
          hintmask 10111100
          195 289 vlineto
          -2 -74 callsubr
          553 141 -194 13 callsubr
          289 hlineto
          hintmask 11011100
          -195 vlineto
          endchar
        </CharString>
        <CharString name="Thorn">
          -114 -42 callsubr
          142 143 352 142 145 40 callsubr
          289 166 315 71 callsubr
          537 778 rmoveto
          100 133 8 -170 -190 -156 0 -73 hvcurveto
          -86 352 hlineto
          -357 -778 rmoveto
          600 141 -245 142 143 hlineto
          205 143 118 215 234 -139 70 -252 hvcurveto
          -98 145 241 141 -598 65 callsubr
          hlineto
          endchar
        </CharString>
        <CharString name="U">
          -20 callsubr
          -95 callsubr
          endchar
        </CharString>
        <CharString name="Uacute">
          -20 callsubr
          346 -20 -95 callsubr
          -67 1271 -62 callsubr
        </CharString>
        <CharString name="Ucircumflex">
          -20 callsubr
          387 -20 -25 callsubr
          381 -65 callsubr
          -10 -1484 -102 callsubr
          endchar
        </CharString>
        <CharString name="Udieresis">
          246 332 317 85 60 callsubr
        </CharString>
        <CharString name="Ugrave">
          -20 callsubr
          355 -20 -95 callsubr
          -460 1452 -58 callsubr
        </CharString>
        <CharString name="V">
          226 30 callsubr
          8 41 callsubr
          195 hlineto
          401 -1065 rlineto
          185 hlineto
          361 1065 rlineto
          70 callsubr
          -478 -141 132 hlineto
          -203 -578 -96 -305 -109 322 -211 561 rlineto
          6 callsubr
          -502 hlineto
          endchar
        </CharString>
        <CharString name="W">
          766 30 callsubr
          12 41 callsubr
          195 hlineto
          340 -1065 rlineto
          176 hlineto
          144 541 79 286 66 -276 145 -551 rlineto
          189 hlineto
          336 1065 rlineto
          70 callsubr
          -469 -141 131 hlineto
          -190 -578 -88 -299 -66 299 -143 566 rlineto
          -181 hlineto
          -167 -578 -63 -289 -89 299 -172 580 rlineto
          6 callsubr
          -498 hlineto
          endchar
        </CharString>
        <CharString name="X">
          274 -23 callsubr
          67 502 254 498 vstem
          65 41 callsubr
          174 hlineto
          357 -449 -354 -475 rlineto
          -175 -141 502 141 -151 hlineto
          268 361 289 -361 rlineto
          -152 -141 535 141 -174 hlineto
          -383 484 325 440 rlineto
          195 141 -512 -141 141 hlineto
          -242 -326 -258 326 rlineto
          6 callsubr
          -516 hlineto
          endchar
        </CharString>
        <CharString name="Y">
          224 0 141 924 141 -75 callsubr
          endchar
        </CharString>
        <CharString name="Yacute">
          224 -69 callsubr
          346 -20 -75 callsubr
          582 174 -62 callsubr
        </CharString>
        <CharString name="Z">
          17 -23 callsubr
          255 866 rmoveto
          41 199 rlineto
          509 hlineto
          -684 -950 rlineto
          -115 833 vlineto
          107 315 -135 45 23 callsubr
          -515 hlineto
          690 959 rlineto
          106 -837 vlineto
          -58 -321 rlineto
          endchar
        </CharString>
        <CharString name="a">
          -94 callsubr
          endchar
        </CharString>
        <CharString name="aacute">
          -48 callsubr
          426 -20 18 callsubr
          hintmask 10111110
          -97 callsubr
          hintmask 01111110
          -87 callsubr
          hintmask 10111110
          -84 callsubr
          -102 949 -57 callsubr
          endchar
        </CharString>
        <CharString name="acircumflex">
          -86 144 51 97 195 endchar
        </CharString>
        <CharString name="acute">
          -373 963 -21 352 -20 hstem
          68 1008 -57 callsubr
          endchar
        </CharString>
        <CharString name="adieresis">
          -86 136 47 97 60 callsubr
        </CharString>
        <CharString name="ae">
          481 27 callsubr
          80 -22 callsubr
          1125 -31 -67 callsubr
          107 -30 callsubr
          -176 108 -219 hhcurveto
          -158 -121 -75 -99 -80 hvcurveto
          90 -49 -94 84 -176 hhcurveto
          -2 callsubr
          -57 0 hvcurveto
          -33 -186 131 -25 -100 callsubr
          118 177 82 47 69 hvcurveto
          -84 80 113 -45 135 hhcurveto
          -684 131 -45 callsubr
          256 -2 6 -70 18 -61 27 -53 rlinecurve
          -45 -74 -121 -50 -96 hhcurveto
          704 678 rmoveto
          154 63 -88 -164 3 hvcurveto
          -519 -2 rlineto
          160 25 113 94 161 hhcurveto
          endchar
        </CharString>
        <CharString name="agrave">
          -86 56 2 97 193 endchar
        </CharString>
        <CharString name="ampersand">
          275 -31 121 1034 113 hstem
          94 159 25 150 231 143 vstem
          1267 844 rmoveto
          -223 -72 -27 -127 -32 -141 -58 -123 rlinecurve
          -127 102 -127 113 -94 111 rrcurveto
          117 79 106 88 140 vvcurveto
          151 -118 72 -144 -108 -154 -41 -205 -82 45 -90 72 -96 vhcurveto
          -148 -86 -153 -100 -203 vvcurveto
          -299 278 -66 140 215 139 94 125 94 vhcurveto
          174 -133 129 -84 -2 vvcurveto
          68 115 -62 39 -108 76 -133 102 rlinecurve
          65 127 37 139 31 107 145 49 rcurveline
          -840 -92 rmoveto
          113 -127 143 -127 138 -109 rrcurveto
          -106 -78 -109 -72 -155 hhcurveto
          -54 -211 37 207 133 99 86 114 78 hvcurveto
          193 366 rmoveto
          -92 -64 -57 -83 -55 vhcurveto
          -54 73 -30 68 59 vvcurveto
          80 30 51 84 86 31 -39 -88 vhcurveto
          endchar
        </CharString>
        <CharString name="aring">
          -48 callsubr
          72 33 callsubr
          hstemhm
          80 164 81 33 callsubr
          8 159 hintmask 1011111111000000
          -97 callsubr
          hintmask 0111111111000000
          -87 callsubr
          hintmask 1011111111000000
          -84 callsubr
          -116 1057 -78 callsubr
        </CharString>
        <CharString name="asciitilde">
          -76 519 387 rmoveto
          58 -31 106 -24 98 35 rrcurveto
          66 22 72 49 0 vvcurveto
          -70 111 rlineto
          2 -51 -35 -22 -70 hvcurveto
          -59 -19 -80 37 -55 25 -60 26 -104 29 -99 -35 rrcurveto
          -65 -23 -70 -45 0 vvcurveto
          70 -110 rlineto
          -2 49 31 22 70 hvcurveto
          59 19 82 -33 53 -29 rrcurveto
          endchar
        </CharString>
        <CharString name="asterisk">
          -168 615 -21 741 -20 hstem
          409 139 vstem
          556 68 callsubr
          -155 hlineto
          16 -297 -274 109 -47 -150 288 -75 -194 -238 129 -90 162 250 161 -250 125 94 -188 232 297 79 -51 148 -285 -111 rlineto
          endchar
        </CharString>
        <CharString name="at">
          334 -217 127 164 110 443 121 219 127 hstem
          105 158 186 156 274 131 230 147 vstem
          1010 674 rmoveto
          0 -108 74 -123 -182 -148 -93 -243 -244 146 -94 145 121 57 82 0 vhcurveto
          -64 49 64 -29 63 hhcurveto
          146 147 146 254 321 -211 310 -420 -465 -186 -375 -283 -368 205 -285 430 205 123 94 0 hvcurveto
          -68 98 rlineto
          0 -127 -65 -129 -250 -231 119 407 330 215 201 278 361 123 -275 -231 -217 -76 -60 -66 -41 -34 23 24 -13 vhcurveto
          -258 -36 rmoveto
          -78 -69 65 150 151 55 66 115 57 47 -25 0 hvcurveto
          -348 vlineto
          0 -28 -59 -99 vhcurveto
          endchar
        </CharString>
        <CharString name="atilde">
          -94 callsubr
          90 1157 -91 callsubr
        </CharString>
        <CharString name="b">
          -57 -15 callsubr
          420 -20 hstem
          149 159 510 -22 callsubr
          -46 1202 rmoveto
          195 -67 rlineto
          -1051 vlineto
          0 151 -115 236 264 182 201 293 291 -184 155 -254 -92 -80 -32 -35 -64 vhcurveto
          381 vlineto
          -311 106 rlineto
          537 -1229 rmoveto
          -146 29 callsubr
          0 89 76 145 186 90 -110 -205 -215 -96 -148 -188 vhcurveto
          endchar
        </CharString>
        <CharString name="backslash">
          -211 64 callsubr
          720 -268 rmoveto
          152 hlineto
          -672 1474 rlineto
          -149 hlineto
          endchar
        </CharString>
        <CharString name="bar">
          -674 -403 -21 1761 -20 hstem
          157 145 vstem
          157 -424 rmoveto
          145 1761 -145 hlineto
          endchar
        </CharString>
        <CharString name="braceleft">
          -502 36 callsubr
          233 145 vstem
          560 -143 rmoveto
          -155 18 -27 102 132 vvcurveto
          237 vlineto
          96 -41 54 -63 26 vhcurveto
          63 29 41 51 98 vvcurveto
          258 vlineto
          132 27 102 155 18 vhcurveto
          -18 125 rlineto
          -219 -16 -90 -117 -211 vvcurveto
          -250 vlineto
          -51 6 -110 -61 vhcurveto
          -148 -113 148 hlineto
          61 -6 -111 -51 hvcurveto
          -229 vlineto
          -211 90 -117 219 -16 vhcurveto
          endchar
        </CharString>
        <CharString name="braceright">
          -501 36 callsubr
          254 145 vstem
          90 -268 rmoveto
          219 16 90 117 211 vvcurveto
          229 vlineto
          51 -6 111 61 vhcurveto
          148 113 -148 hlineto
          -61 6 110 51 hvcurveto
          250 vlineto
          211 -90 117 -219 16 vhcurveto
          -19 -125 rlineto
          156 -18 27 -102 -132 vvcurveto
          -258 vlineto
          -98 41 -51 63 -29 vhcurveto
          -63 -26 -41 -54 -96 vvcurveto
          -237 vlineto
          -132 -27 -102 -156 -18 vhcurveto
          endchar
        </CharString>
        <CharString name="bracketleft">
          26 callsubr
          160 157 -157 368 hintmask 11100000
          317 1206 rmoveto
          hintmask 11010000
          211 129 -368 -1589 368 129 hlineto
          hintmask 11100000
          -211 hlineto
          endchar
        </CharString>
        <CharString name="bracketright">
          26 callsubr
          67 369 -158 158 hintmask 11010000
          278 -125 rmoveto
          hintmask 11100000
          -211 -129 369 1589 -369 -129 hlineto
          hintmask 11010000
          211 hlineto
          endchar
        </CharString>
        <CharString name="brokenbar">
          -661 -407 -21 1765 -20 hstem
          164 144 vstem
          164 614 rmoveto
          144 723 -144 hlineto
          -1765 vmoveto
          144 723 -144 hlineto
          endchar
        </CharString>
        <CharString name="bullet">
          -435 414 475 hstem
          112 475 vstem
          112 651 rmoveto
          -131 107 -106 131 131 106 106 131 131 -106 107 -131 -131 -107 -107 -131 vhcurveto
          endchar
        </CharString>
        <CharString name="c">
          -171 -15 callsubr
          53 callsubr
          vstem
          864 639 49 callsubr
          -90 49 -190 -52 callsubr
          190 156 117 2 vhcurveto
          -41 callsubr
        </CharString>
        <CharString name="caron">
          -422 996 -21 285 -20 hstem
          346 975 rmoveto
          309 219 -37 66 -272 -136 -272 136 -37 -66 rlineto
          endchar
        </CharString>
        <CharString name="ccedilla">
          -169 -436 98 139 90 78 -50 callsubr
          hstemhm
          96 164 160 324 -113 113 hintmask 11111100
          866 639 49 callsubr
          -90 49 -190 -33 callsubr
          -245 127 -164 197 -47 vhcurveto
          -183 76 vlineto
          hintmask 11111010
          119 16 -28 -41 -45 -35 -25 -78 -92 -78 53 0 hvcurveto
          -45 -75 54 callsubr
          105 49 119 110 -80 49 -142 hvcurveto
          78 21 vlineto
          190 156 117 2 hvcurveto
          -41 callsubr
        </CharString>
        <CharString name="cedilla">
          -613 -457 99 139 90 192 -20 hstem
          156 102 109 112 vstem
          258 43 rmoveto
          0 -100 18 -2 2 vhcurveto
          -282 75 vlineto
          119 17 -29 -41 -45 -35 -24 -78 -92 -78 53 0 hvcurveto
          -45 -76 54 callsubr
          104 49 119 111 -80 49 -141 hvcurveto
          endchar
        </CharString>
        <CharString name="cent">
          -194 -133 -21 1489 -20 hstem
          70 164 204 142 vstem
          840 799 49 callsubr
          -72 37 -145 10 vhcurveto
          268 -142 -272 vlineto
          -221 -31 -147 -170 -262 vvcurveto
          -264 147 -168 221 -33 vhcurveto
          -289 142 289 vlineto
          159 21 123 92 2 vvcurveto
          -67 100 rlineto
          0 -95 -65 -120 -19 vhcurveto
          670 vlineto
          57 -6 33 -12 12 -7 27 -141 rcurveline
          -475 -170 rmoveto
          182 67 117 137 31 vhcurveto
          -660 vlineto
          -137 31 -67 117 182 vvcurveto
          endchar
        </CharString>
        <CharString name="circumflex">
          -431 1022 -21 285 -20 hstem
          37 1067 -82 callsubr
          endchar
        </CharString>
        <CharString name="colon">
          -602 -31 254 432 254 hstem
          139 254 vstem
          393 96 rmoveto
          -70 callsubr
          686 vmoveto
          -70 callsubr
          endchar
        </CharString>
        <CharString name="comma">
          -68 callsubr
        </CharString>
        <CharString name="copyright">
          524 -129 129 215 121 532 123 215 129 hstem
          96 129 242 145 819 129 vstem
          1034 463 rmoveto
          -31 -96 rlineto
          -5 -65 -26 -70 -174 -82 117 149 152 74 114 182 90 43 -30 0 vhcurveto
          37 -99 113 35 -47 146 rlineto
          0 -88 71 -160 -238 -151 -133 -258 vhcurveto
          -254 6 145 -131 238 hhcurveto
          147 97 49 0 hvcurveto
          53 164 rlineto
          -1057 172 rmoveto
          -420 309 -309 426 424 305 309 420 430 -305 305 -424 -426 -309 -305 -430 vhcurveto
          129 -10 rmoveto
          348 240 268 358 357 251 -268 -348 -334 -251 -256 -357 -358 -240 256 334 vhcurveto
          endchar
        </CharString>
        <CharString name="currency">
          -53 101 -21 63 117 442 117 68 -20 hstem
          192 133 436 136 vstem
          192 479 rmoveto
          -78 25 -67 41 -55 vhcurveto
          -138 -91 74 -108 164 110 rlineto
          -30 53 64 -17 67 hhcurveto
          68 61 17 28 54 hvcurveto
          161 -106 74 108 -131 86 rlineto
          43 56 25 69 78 vvcurveto
          80 -27 72 -47 57 vhcurveto
          135 92 -72 107 -166 -113 rlineto
          29 -53 -59 16 -66 hhcurveto
          -65 -64 -16 -31 -51 hvcurveto
          -168 115 -74 -109 140 -94 rlineto
          -43 -57 -25 -70 -78 vvcurveto
          133 hmoveto
          123 96 100 121 125 94 -100 -123 -121 -94 -98 -125 -121 -96 98 121 vhcurveto
          endchar
        </CharString>
        <CharString name="d">
          19 17 callsubr
          -114 -21 813 131 420 -20 hstemhm
          92 164 510 160 hintmask 10111100
          926 162 rmoveto
          1061 vlineto
          45 callsubr
          -269 vlineto
          25 -63 -74 18 -90 9 callsubr
          108 91 43 47 67 hvcurveto
          hintmask 01111100
          272 -94 41 131 rlineto
          -577 682 rmoveto
          145 80 -51 0 hvcurveto
          -551 vlineto
          hintmask 10111100
          -29 -43 -80 -11 callsubr
        </CharString>
        <CharString name="degree">
          -494 817 101 217 102 hstem
          111 108 199 110 vstem
          528 1026 rmoveto
          135 -98 76 -111 -108 -100 -76 -135 -135 100 -74 108 111 98 74 135 vhcurveto
          -309 hmoveto
          70 49 39 51 52 47 -39 -70 -70 -47 -38 -52 -51 -49 38 70 vhcurveto
          endchar
        </CharString>
        <CharString name="dieresis">
          -410 997 230 hstem
          61 22 callsubr
          vstem
          291 1112 -90 callsubr
        </CharString>
        <CharString name="divide">
          -145 154 254 133 141 125 254 hstem
          379 254 vstem
          113 541 rmoveto
          762 141 -762 hlineto
          520 -401 rmoveto
          8 callsubr
          653 vmoveto
          8 callsubr
          endchar
        </CharString>
        <CharString name="dollar">
          -155 -149 -21 1505 -20 hstem
          119 129 170 133 186 143 vstem
          418 68 callsubr
          -184 vlineto
          -228 -23 -71 -129 -159 vvcurveto
          -146 88 -141 211 -27 vhcurveto
          -405 vlineto
          -62 8 -65 18 -52 19 -22 143 rcurveline
          -127 -14 35 -213 rlineto
          2 125 -64 -16 166 hvcurveto
          -172 131 170 vlineto
          209 12 122 101 235 vvcurveto
          152 -75 123 -207 30 vhcurveto
          -47 6 rlineto
          371 vlineto
          69 -6 54 -16 34 -15 25 -151 rcurveline
          123 12 -31 229 rlineto
          -2 hlineto
          -10 2 -82 56 -180 12 rrcurveto
          182 vlineto
          186 -1007 rmoveto
          -125 -74 -64 -114 -18 vhcurveto
          387 vlineto
          149 -10 39 -90 -80 vvcurveto
          -489 534 rmoveto
          92 49 60 121 16 vhcurveto
          -350 vlineto
          -15 2 rlineto
          -96 14 -59 76 90 vvcurveto
          endchar
        </CharString>
        <CharString name="dotlessi">
          -485 -32 callsubr
          hstemhm
          95 5 callsubr
          hintmask 11100000
          95 35 callsubr
          hintmask 11001000
          66 callsubr
          hintmask 11100000
          -2 callsubr
          hlineto
          hintmask 11010000
          38 callsubr
          hintmask 11100000
          12 callsubr
          endchar
        </CharString>
        <CharString name="e">
          -17 callsubr
          -88 callsubr
          endchar
        </CharString>
        <CharString name="eacute">
          -17 callsubr
          424 -20 hstem
          94 166 vstem
          384 1047 -57 callsubr
          -285 -1364 -98 callsubr
          endchar
        </CharString>
        <CharString name="ecircumflex">
          -17 callsubr
          428 -20 -88 callsubr
          -315 340 -82 callsubr
          endchar
        </CharString>
        <CharString name="edieresis">
          -105 170 47 101 60 callsubr
        </CharString>
        <CharString name="egrave">
          -105 82 0 101 193 endchar
        </CharString>
        <CharString name="eight">
          -45 42 callsubr
          444 131 414 139 hstem
          141 153 500 176 vstem
          542 1237 rmoveto
          -219 -182 -123 -223 -115 74 -119 131 -34 hvcurveto
          -131 -21 -97 -125 -143 vvcurveto
          -244 203 -121 223 224 202 121 244 143 -96 125 -131 21 vhcurveto
          131 34 74 119 115 vvcurveto
          223 -182 123 -224 vhcurveto
          2 -1128 rmoveto
          -147 -103 94 131 123 82 96 168 168 82 -96 -123 -131 -102 -94 -148 hvcurveto
          575 vmoveto
          -145 -84 88 119 117 84 90 145 146 84 -90 -117 -119 -84 -88 -146 hvcurveto
          endchar
        </CharString>
        <CharString name="emdash">
          529 401 142 hstem
          135 401 rmoveto
          1393 142 -1393 hlineto
          endchar
        </CharString>
        <CharString name="endash">
          83 46 callsubr
          940 142 -940 hlineto
          endchar
        </CharString>
        <CharString name="equal">
          -79 387 141 183 40 callsubr
          147 711 rmoveto
          760 141 -760 hlineto
          -465 vmoveto
          760 141 -760 hlineto
          endchar
        </CharString>
        <CharString name="eth">
          -22 -33 131 676 131 441 -20 53 callsubr
          572 161 vstem
          432 983 rmoveto
          95 102 88 -53 71 -69 58 -97 rlinecurve
          31 -74 -82 8 -47 hhcurveto
          -33 callsubr
          -315 213 -154 234 250 200 180 390 hvcurveto
          -8 264 -131 231 -223 144 -6 2 -4 4 -4 2 71 80 rcurveline
          -84 82 -94 -105 -72 35 -84 27 -112 32 rlinecurve
          -27 -112 74 -25 70 -27 61 -28 rlinecurve
          -70 -78 rlineto
          195 -291 rmoveto
          96 101 -26 -41 57 hvcurveto
          18 -66 15 -57 -82 vvcurveto
          -256 -103 -148 -184 -26 callsubr
          123 189 vhcurveto
          endchar
        </CharString>
        <CharString name="exclam">
          -627 -31 254 983 -20 hstemhm
          125 62 callsubr
          336 1206 rmoveto
          -162 hlineto
          18 -825 rlineto
          119 hlineto
          hintmask 11100000
          68 -285 rmoveto
          -70 callsubr
          endchar
        </CharString>
        <CharString name="exclamdown">
          -671 -405 -21 1081 254 hstemhm
          103 62 callsubr
          289 498 rmoveto
          -119 hlineto
          -18 -924 rlineto
          162 hlineto
          hintmask 11100000
          43 1208 rmoveto
          70 -60 57 -67 -70 -57 -57 -70 -67 57 -60 70 67 60 60 67 vhcurveto
          endchar
        </CharString>
        <CharString name="f">
          -32 callsubr
          305 131 hstem
          268 72 callsubr
          96 hmoveto
          516 127 -184 625 254 127 -254 57 hlineto
          166 41 82 176 127 76 -47 0 vhcurveto
          61 104 rlineto
          0 -96 74 -178 -262 -105 -117 -229 vhcurveto
          -90 24 callsubr
          172 -625 -172 vlineto
          endchar
        </CharString>
        <CharString name="five">
          -106 42 callsubr
          548 140 266 143 hstem
          154 165 435 71 callsubr
          154 1206 rmoveto
          -604 vlineto
          94 -45 rlineto
          2 vlineto
          8 8 78 90 184 hhcurveto
          117 119 -63 -180 -228 -131 -77 -138 hvcurveto
          -176 -104 98 -2 hhcurveto
          -99 -113 rlineto
          0 138 -125 237 299 150 201 246 162 -107 219 -303 -88 -66 -27 -33 -45 vhcurveto
          326 543 143 vlineto
          endchar
        </CharString>
        <CharString name="foundryicon">
          2435 -542 -21 1472 -20 340 -20 253 -20 hstem
          719 233 447 172 342 209 90 86 vstem
          1253 813 rmoveto
          -53 57 -115 48 -71 -9 24 -153 60 -312 -56 -254 -4 -14 -8 -33 -31 -8 -59 189 0 211 12 221 -53 49 -100 18 -41 8 rrcurveto
          -25 -47 -14 -69 -103 vvcurveto
          -108 8 -111 29 -94 vhcurveto
          -31 -68 -66 -118 -106 -35 -260 186 96 830 135 125 35 -43 43 -172 -18 -109 -4 -12 0 -21 24 27 rrcurveto
          76 65 53 82 99 vvcurveto
          256 -186 45 -123 26 vhcurveto
          -225 -196 -80 -338 2 -334 rrcurveto
          -291 6 123 -299 311 hhcurveto
          137 68 98 82 29 hvcurveto
          -88 43 67 -59 99 hhcurveto
          26 25 20 17 10 hvcurveto
          -33 -271 -4 -182 -170 -110 -20 75 14 107 10 78 rrcurveto
          55 -55 -82 20 -66 hhcurveto
          -16 -55 -14 -61 -66 vvcurveto
          -147 37 -80 143 408 114 723 653 -78 vhcurveto
          33 37 rmoveto
          88 -215 10 -365 15 -243 92 -17 55 64 25 84 rrcurveto
          20 59 0 113 69 vvcurveto
          19 76 57 55 21 56 16 -111 65 -43 115 31 -18 98 8 135 18 99 -28 51 -80 24 -86 9 rrcurveto
          -15 -33 -16 -62 -36 vvcurveto
          -18 -56 -31 -61 -47 -88 -8 108 -27 78 -31 55 -23 26 -30 17 -35 7 -33 8 -43 5 -55 3 rrcurveto
          1266 -737 rmoveto
          -55 172 59 309 61 76 -6 -76 -2 -188 37 -150 -4 -57 -57 -58 -33 -28 rrcurveto
          602 422 rmoveto
          10 213 41 245 41 166 31 -164 -31 -327 -92 -133 rrcurveto
          -977 155 rmoveto
          14 -28 21 -60 -59 vvcurveto
          -101 -29 -118 -61 -9 vhcurveto
          129 18 134 37 112 vhcurveto
          293 662 rmoveto
          0 2 0 -2 2 vhcurveto
          -35 hlineto
          8 39 rlineto
          0 6 2 -8 vhcurveto
          -35 -13 rlineto
          11 -16 -18 2 -21 hhcurveto
          -51 -51 -35 -60 -17 hvcurveto
          -30 -30 -195 -31 -197 -37 rrcurveto
          -38 -242 21 6 -4 hvcurveto
          -10 -5 -12 -9 11 hvcurveto
          53 -49 133 6 39 -35 82 -98 98 -96 111 -23 8 -28 12 -29 13 -25 -23 3 -25 0 -24 -3 -51 -83 -31 -177 -4 -149 rrcurveto
          -199 -12 73 -186 213 hhcurveto
          90 8 60 64 35 55 rrcurveto
          -74 20 57 -53 107 hhcurveto
          53 6 70 43 14 57 rrcurveto
          -57 25 61 -70 78 hhcurveto
          68 49 62 63 16 hvcurveto
          -80 47 74 -45 100 hhcurveto
          221 41 271 159 -10 hvcurveto
          -8 -6 3 -7 -15 hvcurveto
          -43 -174 -65 -110 -82 -62 rrcurveto
          -59 86 -27 115 141 vvcurveto
          152 70 81 283 235 vvcurveto
          248 -65 106 -240 39 vhcurveto
          -161 -291 -48 -510 78 -378 6 -29 rcurveline
          -18 -33 -45 -92 -39 10 -59 203 18 332 31 215 -31 33 -104 43 -45 -13 -17 -12 -22 -113 -7 -20 rrcurveto
          16 -43 -55 11 -47 hhcurveto
          -94 -101 -33 -137 -6 -147 rrcurveto
          -109 vlineto
          -27 -66 -45 -96 -80 -33 -39 25 -14 57 -14 58 rrcurveto
          112 34 60 156 139 vvcurveto
          121 -45 76 -74 37 vhcurveto
          -2 2 0 0 2 vvcurveto
          -16 29 -19 36 -18 37 192 31 64 250 61 125 rrcurveto
          -293 -500 rmoveto
          -18 6 -19 2 -20 4 -25 80 rcurveline
          31 hlineto
          14 -35 19 -32 18 -25 rrcurveto
          endchar
        </CharString>
        <CharString name="four">
          -50 -42 callsubr
          197 139 797 -20 hstem
          644 163 vstem
          1000 338 rmoveto
          141 vlineto
          -194 -2 2 551 rlineto
          -164 -551 -416 hlineto
          4 232 477 114 240 vhcurveto
          -135 76 -389 -860 2 -76 rlineto
          592 -197 -215 -141 563 141 -186 197 hlineto
          endchar
        </CharString>
        <CharString name="foursuperior">
          -336 481 99 104 98 490 -20 hstem
          441 118 vstem
          675 684 -40 callsubr
          -104 -129 -99 359 99 -113 104 vlineto
          endchar
        </CharString>
        <CharString name="fraction">
          -438 -79 -21 1378 -20 hstem
          705 1278 rmoveto
          -143 hlineto
          -570 -1378 rlineto
          146 hlineto
          endchar
        </CharString>
        <CharString name="g">
          -34 -457 129 256 127 187 114 439 114 52 -20 hstemhm
          106 156 -6 147 359 155 -106 149 hintmask 1111110100000000
          1098 825 rmoveto
          -48 136 -290 -109 rlineto
          39 -68 -80 18 -102 hhcurveto
          -244 -160 -129 -211 hvcurveto
          hintmask 1111101010000000
          -137 74 -92 76 -41 vhcurveto
          -371 334 vlineto
          170 51 -49 -76 -92 -109 -39 -178 -209 -172 90 0 hvcurveto
          -57 -120 rlineto
          -7 10 182 -92 246 hhcurveto
          227 209 74 201 157 -108 80 -219 hvcurveto
          -230 193 hlineto
          0 45 -6 60 vhcurveto
          hintmask 1111110100000000
          213 196 100 238 75 -22 66 -39 49 hvcurveto
          -594 -195 rmoveto
          148 96 72 154 153 97 -72 -148 -147 -119 -72 -131 -131 -119 72 147 vhcurveto
          endchar
        </CharString>
        <CharString name="germandbls">
          83 17 callsubr
          -100 127 625 127 305 131 hstemhm
          96 -13 callsubr
          161 160 72 151 33 147 hintmask 0111101110000000
          96 hmoveto
          332 936 hlineto
          164 40 84 177 116 60 -72 -59 vhcurveto
          -144 -232 -12 -233 vvcurveto
          -111 97 -100 153 -54 vhcurveto
          78 -26 88 -37 -107 vvcurveto
          hintmask 1011011110000000
          -75 -57 -54 -84 -101 -43 50 0 vhcurveto
          -20 120 -133 -28 33 -183 rlineto
          0 88 -90 174 155 135 94 166 177 -96 83 -135 50 vhcurveto
          -108 39 -64 30 70 123 223 49 203 vvcurveto
          151 -116 111 -222 -262 -104 -117 -229 vhcurveto
          -90 vlineto
          hintmask 1011101110000000
          24 callsubr
          hlineto
          hintmask 0111011110000000
          172 -625 hlineto
          hintmask 0111101110000000
          -172 hlineto
          endchar
        </CharString>
        <CharString name="grave">
          -447 1004 -21 352 -20 hstem
          158 68 callsubr
          -72 -135 477 -217 37 66 rlineto
          endchar
        </CharString>
        <CharString name="greater">
          -73 164 -21 959 -20 hstem
          200 143 rmoveto
          792 439 rlineto
          125 vlineto
          -813 395 -65 -131 678 -328 rlineto
          -12 vlineto
          -658 -357 rlineto
          endchar
        </CharString>
        <CharString name="guillemotleft">
          -301 -28 callsubr
          47 368 rmoveto
          160 238 -113 66 -207 -304 207 -303 113 66 rlineto
          endchar
        </CharString>
        <CharString name="guillemotright">
          -301 19 callsubr
          325 2 callsubr
          -469 -237 rmoveto
          113 -66 207 303 -207 304 -113 -66 162 -238 rlineto
          endchar
        </CharString>
        <CharString name="guilsinglleft">
          -516 -28 callsubr
          endchar
        </CharString>
        <CharString name="guilsinglright">
          -516 19 callsubr
          110 2 callsubr
          endchar
        </CharString>
        <CharString name="h">
          100 28 callsubr
          422 50 callsubr
          67 callsubr
          29 1204 rmoveto
          194 -67 rlineto
          -1010 -172 -5 callsubr
          110 69 148 176 41 -47 callsubr
          -105 116 -262 -115 -96 -49 -37 -57 vhcurveto
          402 vlineto
          -311 106 rlineto
          endchar
        </CharString>
        <CharString name="hyphen">
          -230 46 callsubr
          627 142 -627 hlineto
          endchar
        </CharString>
        <CharString name="i">
          -485 -32 callsubr
          182 254 hstemhm
          95 330 -330 500 -391 253 -192 160 hintmask 11110000
          95 35 callsubr
          hintmask 11100010
          -29 callsubr
          hintmask 11100100
          362 309 rmoveto
          67 -59 60 -68 -69 -57 -60 -67 -70 57 -57 69 68 59 58 callsubr
        </CharString>
        <CharString name="iacute">
          -486 -32 callsubr
          456 -20 hstemhm
          95 5 callsubr
          hintmask 11110000
          95 35 callsubr
          hintmask 11100100
          -29 callsubr
          70 170 -57 callsubr
          endchar
        </CharString>
        <CharString name="icircumflex">
          -485 -18 51 245 195 endchar
        </CharString>
        <CharString name="idieresis">
          -485 -32 callsubr
          165 230 hstemhm
          45 230 -180 5 callsubr
          -15 229 hintmask 11101000
          95 35 callsubr
          hintmask 11100010
          66 callsubr
          hintmask 11101000
          -2 callsubr
          hlineto
          hintmask 11100100
          38 callsubr
          hintmask 11101000
          12 callsubr
          hintmask 11110001
          180 280 -90 callsubr
        </CharString>
        <CharString name="igrave">
          -485 -134 0 245 193 endchar
        </CharString>
        <CharString name="j">
          -590 -457 129 1080 127 182 254 hstemhm
          51 332 -219 254 -195 160 hintmask 11110000
          51 35 callsubr
          hintmask 11100100
          172 -828 hlineto
          -102 14 -150 -221 -33 -26 2 2 -27 vhcurveto
          -20 -125 rlineto
          -2 24 49 -6 27 hhcurveto
          369 4 224 170 hvcurveto
          942 vlineto
          hintmask 11110000
          -332 hlineto
          hintmask 11101000
          367 309 -10 callsubr
        </CharString>
        <CharString name="k">
          -6 0 127 256 127 242 127 454 50 callsubr
          vstem
          1034 879 rmoveto
          -430 -127 107 hlineto
          -142 -242 rlineto
          -186 717 hlineto
          45 callsubr
          -1012 -172 21 callsubr
          -92 256 180 vlineto
          232 -383 rlineto
          272 127 -176 hlineto
          -199 332 rlineto
          -2 hlineto
          172 293 rlineto
          172 hlineto
          endchar
        </CharString>
        <CharString name="l">
          -527 0 127 1208 50 callsubr
          vstem
          53 68 callsubr
          -34 -131 204 -45 rlineto
          -1032 24 callsubr
          504 127 -172 1133 vlineto
          endchar
        </CharString>
        <CharString name="less">
          -67 164 -21 959 -20 hstem
          952 274 rmoveto
          -684 357 rlineto
          12 vlineto
          664 328 -66 131 -798 -395 rlineto
          -125 vlineto
          819 -439 rlineto
          endchar
        </CharString>
        <CharString name="logicalnot">
          75 453 421 -141 59 callsubr
          891 160 hintmask 01100000
          115 733 rmoveto
          776 hlineto
          hintmask 10100000
          -280 160 421 -936 vlineto
          endchar
        </CharString>
        <CharString name="m">
          687 28 callsubr
          hstemhm
          273 160 333 344 -252 160 426 160 hintmask 11101100
          43 callsubr
          -172 -5 callsubr
          75 69 148 176 26 -102 -146 vhcurveto
          -403 vlineto
          hintmask 11110100
          -92 -127 344 127 hlineto
          hintmask 11101100
          -92 582 hlineto
          0 76 69 147 177 26 -47 callsubr
          -90 116 -262 -178 -113 -106 0 vhcurveto
          -4 -2 rlineto
          71 -53 -93 37 -145 hhcurveto
          -145 -97 -67 -27 -34 hvcurveto
          -271 94 rlineto
          endchar
        </CharString>
        <CharString name="macron">
          1024 40 callsubr
          74 1024 rmoveto
          612 141 -612 hlineto
          endchar
        </CharString>
        <CharString name="minus">
          -107 537 40 callsubr
          147 537 rmoveto
          732 141 -732 hlineto
          endchar
        </CharString>
        <CharString name="mu">
          101 -459 127 301 131 779 -20 hstem
          190 160 67 callsubr
          346 51 rmoveto
          -33 33 65 -49 113 hhcurveto
          137 117 64 28 47 hvcurveto
          -24 callsubr
          717 -160 -707 vlineto
          0 -110 -72 -148 -174 -43 111 244 vhcurveto
          424 -160 -955 vlineto
          -129 7 -117 88 -69 vhcurveto
          -45 57 72 -23 84 hhcurveto
          49 57 6 15 43 hvcurveto
          -26 123 rlineto
          0 -48 -17 -55 -131 -37 76 182 -2 vhcurveto
          endchar
        </CharString>
        <CharString name="multiply">
          -243 343 -21 626 -20 hstem
          230 322 rmoveto
          217 208 213 -204 102 114 -204 197 200 192 -98 111 -209 -201 -217 209 -102 -114 209 -201 -209 -201 rlineto
          endchar
        </CharString>
        <CharString name="n">
          150 28 callsubr
          hstem
          273 159 67 callsubr
          43 callsubr
          -173 -5 callsubr
          111 69 147 176 41 -47 callsubr
          -104 116 -262 -146 -123 -67 -27 -41 vhcurveto
          -272 94 rlineto
          endchar
        </CharString>
        <CharString name="nbspace">
          -671 endchar
        </CharString>
        <CharString name="nine">
          -1 42 callsubr
          284 139 566 139 hstem
          101 168 567 180 vstem
          504 109 rmoveto
          -137 -131 75 -2 -2 hvcurveto
          -76 -119 rlineto
          0 133 -94 199 219 307 115 526 402 -154 225 -317 -360 -84 -256 -152 -342 202 -94 207 152 119 82 74 55 vhcurveto
          -205 -10 -54 -235 -268 hhcurveto
          6 423 rmoveto
          -164 -77 125 148 160 84 133 178 141 145 -49 -344 19 hvcurveto
          -101 -45 -109 -72 -172 hhcurveto
          endchar
        </CharString>
        <CharString name="noBreak">
          -601 endchar
        </CharString>
        <CharString name="nonmarkingreturn">
          -601 endchar
        </CharString>
        <CharString name="ntilde">
          150 94 61 110 196 endchar
        </CharString>
        <CharString name="numbersign">
          214 -137 499 -110 110 332 111 -111 512 hstemhm
          hintmask 10100000
          147 694 rmoveto
          303 hlineto
          -92 -332 rlineto
          -281 hlineto
          hintmask 01100000
          -110 250 vlineto
          hintmask 10100000
          -107 -389 rlineto
          132 hlineto
          hintmask 01100000
          106 389 rlineto
          274 hlineto
          hintmask 10100000
          -106 -389 rlineto
          131 hlineto
          hintmask 01100000
          107 389 rlineto
          335 110 -305 hlineto
          92 332 rlineto
          283 111 -252 hlineto
          hintmask 10010000
          111 61 callsubr
          -113 -401 rlineto
          -274 hlineto
          hintmask 10010000
          110 61 callsubr
          -112 -401 rlineto
          -334 hlineto
          434 -111 rmoveto
          274 hlineto
          -92 -332 rlineto
          -274 hlineto
          endchar
        </CharString>
        <CharString name="o">
          -86 callsubr
          endchar
        </CharString>
        <CharString name="oacute">
          -44 -15 callsubr
          426 -20 -96 callsubr
          -118 271 -57 callsubr
          endchar
        </CharString>
        <CharString name="ocircumflex">
          -44 201 51 111 195 endchar
        </CharString>
        <CharString name="odieresis">
          -44 187 47 111 60 callsubr
        </CharString>
        <CharString name="oe">
          432 27 callsubr
          92 164 0 375 0 166 vstem
          1077 -31 rmoveto
          248 140 -55 callsubr
          -177 -96 107 190 -10 vhcurveto
          659 4 rlineto
          400 41 -200 108 -220 hhcurveto
          -98 -86 -24 -45 -69 hvcurveto
          34 -68 -94 35 -123 hhcurveto
          -250 -197 -188 -264 0 callsubr
          -195 264 104 90 41 45 66 hvcurveto
          -55 74 94 -31 110 hhcurveto
          -446 469 rmoveto
          -119 29 -98 53 -76 vhcurveto
          -24 -45 -57 -21 -70 hhcurveto
          -189 -96 144 215 182 111 137 174 82 61 -16 -14 39 hvcurveto
          -59 -78 -33 -107 -125 vvcurveto
          449 340 rmoveto
          153 82 -88 -36 callsubr
          94 162 hhcurveto
          endchar
        </CharString>
        <CharString name="ograve">
          -44 45 0 111 193 endchar
        </CharString>
        <CharString name="one">
          -165 -42 callsubr
          1065 -20 hstem
          462 72 callsubr
          170 725 rmoveto
          293 242 -2 -826 rlineto
          -340 -141 819 141 -320 hlineto
          4 1065 rlineto
          -102 hlineto
          -442 -370 rlineto
          endchar
        </CharString>
        <CharString name="onehalf">
          570 -135 -21 156 104 357 104 92 105 444 -20 149 -20 hstem
          311 123 1011 127 vstem
          1195 104 -73 callsubr
          -1341 789 -61 callsubr
          1126 358 -21 callsubr
          endchar
        </CharString>
        <CharString name="onequarter">
          496 -135 -21 158 98 105 98 158 104 641 -20 149 -20 hstem
          304 123 902 118 vstem
          1211 1335 -21 callsubr
          946 361 -37 callsubr
          60 129 145 301 -100 60 -238 -527 rlineto
          -61 356 -105 -129 -98 359 98 -113 105 vlineto
          -1308 688 -61 callsubr
          endchar
        </CharString>
        <CharString name="onesuperior">
          -378 461 104 641 -20 hstem
          352 123 vstem
          186 893 -61 callsubr
          endchar
        </CharString>
        <CharString name="ordfeminine">
          -334 326 94 -77 -21 253 93 145 96 hstemhm
          113 119 243 117 hintmask 10111100
          242 729 rmoveto
          16 70 rlineto
          6 21 37 8 43 hhcurveto
          118 -2 -76 -55 hvcurveto
          -14 vlineto
          -2 vlineto
          -151 2 rlineto
          -117 -96 -47 -121 2 hvcurveto
          -99 80 -75 139 72 59 22 33 43 vhcurveto
          hintmask 01111100
          176 -59 31 94 -37 12 -45 14 -39 13 rlinecurve
          211 vlineto
          104 -6 139 -232 -106 -80 -37 0 vhcurveto
          -22 -124 rlineto
          hintmask 10111100
          192 -328 rmoveto
          -59 -47 26 54 65 45 10 51 hvcurveto
          147 -104 hlineto
          -20 -24 -47 -31 -66 hhcurveto
          endchar
        </CharString>
        <CharString name="ordmasculine">
          -352 330 98 383 98 hstem
          112 117 324 116 vstem
          389 330 rmoveto
          168 112 106 182 185 -112 106 -168 -162 -115 -106 -185 -182 115 -106 162 hvcurveto
          2 481 rmoveto
          106 56 -70 -123 -120 -56 -70 -106 -107 -55 70 120 123 55 70 107 hvcurveto
          endchar
        </CharString>
        <CharString name="oslash">
          -44 -126 -21 116 -50 callsubr
          111 -20 -66 callsubr
          195 -82 143 -134 74 hvcurveto
          70 170 rlineto
          -129 hlineto
          -51 -127 rlineto
          10 -41 -43 6 -45 hhcurveto
          -1 callsubr
          -178 -293 -198 82 -146 138 -71 hvcurveto
          -70 -170 rlineto
          131 hlineto
          51 129 rlineto
          -9 37 37 -4 41 hhcurveto
          25 callsubr
          27 26 -2 -6 23 hvcurveto
          -252 -618 rlineto
          -74 55 -35 98 133 vvcurveto
          215 96 125 189 vhcurveto
          289 -340 rmoveto
          -215 -97 -123 -192 -23 -22 2 4 -21 vhcurveto
          250 613 rlineto
          70 -55 35 -99 -127 vvcurveto
          endchar
        </CharString>
        <CharString name="otilde">
          -86 callsubr
          6 479 -91 callsubr
        </CharString>
        <CharString name="p">
          16 -16 callsubr
          6 -20 hstemhm
          223 160 510 163 hintmask 11101100
          555 56 callsubr
          61 63 callsubr
          205 293 287 -180 155 -258 -108 -99 -45 -43 -65 hvcurveto
          hintmask 11011100
          -275 94 -41 -131 193 -63 rlineto
          -1020 24 callsubr
          504 vlineto
          53 526 rmoveto
          -145 29 callsubr
          hintmask 11101100
          0 88 76 145 184 93 -104 -207 -215 -97 -152 -188 vhcurveto
          endchar
        </CharString>
        <CharString name="paragraph">
          82 -69 callsubr
          hstemhm
          305 338 -139 139 147 140 -140 320 hintmask 11011000
          643 41 callsubr
          147 -1065 hlineto
          hintmask 11100100
          320 141 hlineto
          hintmask 11011000
          -180 924 188 141 -719 hlineto
          -186 -143 -96 -190 -203 94 -103 266 hvcurveto
          74 -473 hlineto
          -199 -141 338 hlineto
          endchar
        </CharString>
        <CharString name="parenleft">
          44 callsubr
          92 -22 callsubr
          256 539 rmoveto
          151 35 316 233 229 vhcurveto
          -78 100 rlineto
          -178 -114 -176 -322 -360 vvcurveto
          -359 176 -321 178 -115 vhcurveto
          78 100 rlineto
          -233 230 -35 315 150 vvcurveto
          endchar
        </CharString>
        <CharString name="parenright">
          44 callsubr
          326 -22 callsubr
          326 539 rmoveto
          -150 -35 -315 -233 -230 vhcurveto
          78 -100 rlineto
          178 115 176 321 359 vvcurveto
          360 -176 322 -178 114 vhcurveto
          -78 -100 rlineto
          233 -229 35 -316 -151 vvcurveto
          endchar
        </CharString>
        <CharString name="percent">
          364 -33 135 -124 -21 561 135 -102 135 416 135 hstemhm
          76 133 278 134 254 133 278 133 hintmask 0110111110000000
          1108 1237 rmoveto
          -149 hlineto
          -599 -1280 rlineto
          152 hlineto
          -303 920 rmoveto
          -12 callsubr
          412 hmoveto
          268 -111 1 callsubr
          111 92 267 vhcurveto
          387 -551 rmoveto
          hintmask 1001111110000000
          -12 callsubr
          411 hmoveto
          268 -110 1 callsubr
          110 92 267 vhcurveto
          endchar
        </CharString>
        <CharString name="period">
          -626 -31 254 hstem
          127 254 vstem
          381 96 rmoveto
          -70 callsubr
          endchar
        </CharString>
        <CharString name="periodcentered">
          -603 324 254 hstem
          139 253 vstem
          392 451 rmoveto
          69 -59 58 -67 -70 -57 -58 -69 -70 57 -57 70 67 59 58 callsubr
        </CharString>
        <CharString name="plus">
          -181 261 -21 311 141 309 -20 hstem
          398 154 vstem
          95 551 rmoveto
          303 -311 154 47 callsubr
          -154 -309 -303 hlineto
          endchar
        </CharString>
        <CharString name="plusminus">
          -72 139 142 440 141 309 -20 hstem
          454 153 vstem
          150 721 rmoveto
          304 -311 153 47 callsubr
          -153 -309 -304 hlineto
          -723 vmoveto
          762 142 -762 hlineto
          endchar
        </CharString>
        <CharString name="q">
          -56 -16 callsubr
          hstem
          92 164 512 72 callsubr
          596 -426 rmoveto
          504 127 -172 1092 hlineto
          2 -2 -152 114 -235 9 callsubr
          90 78 31 35 61 hvcurveto
          -334 -172 vlineto
          -55 1077 rmoveto
          145 80 -51 -2 2 hvcurveto
          -547 vlineto
          -31 -41 -84 -11 callsubr
        </CharString>
        <CharString name="question">
          -252 -31 254 875 137 hstemhm
          266 156 -125 254 90 174 hintmask 11101000
          203 891 rmoveto
          26 172 rlineto
          18 43 66 17 98 hhcurveto
          146 59 -86 -56 -110 -92 -31 -90 -51 hvcurveto
          -55 -31 -138 -59 -131 vvcurveto
          -160 162 -61 4 -5 vhcurveto
          80 109 rlineto
          -33 18 -57 31 53 vvcurveto
          58 78 24 82 45 vhcurveto
          155 84 78 82 133 vvcurveto
          107 -102 174 -275 -237 -99 -78 0 vhcurveto
          -34 -252 rlineto
          hintmask 11011000
          483 -809 rmoveto
          68 -59 59 -68 -34 callsubr
          68 59 58 69 vhcurveto
          endchar
        </CharString>
        <CharString name="questiondown">
          -262 -426 137 914 254 hstemhm
          61 174 91 254 -125 155 hintmask 11101000
          295 164 rmoveto
          -156 -84 -78 -92 -133 vvcurveto
          -107 103 -174 274 vhcurveto
          248 82 78 6 hhcurveto
          35 252 -135 14 -29 -174 rlineto
          -16 -41 -67 -17 -97 hhcurveto
          -145 -60 86 56 110 93 41 90 51 hvcurveto
          55 31 137 59 131 vvcurveto
          160 -162 62 -4 4 vhcurveto
          -79 -109 rlineto
          32 -18 58 -31 -53 vvcurveto
          -58 -78 -24 -82 -45 vhcurveto
          hintmask 11110000
          285 588 -10 callsubr
        </CharString>
        <CharString name="quotedbl">
          -428 825 381 hstem
          164 825 4 callsubr
          330 -381 4 callsubr
          endchar
        </CharString>
        <CharString name="quotedblbase">
          -227 -6 callsubr
          106 273 -85 callsubr
          379 hmoveto
          -19 callsubr
          -58 -51 -76 -37 17 -32 26 -23 vhcurveto
          21 -16 27 -8 24 -3 rrcurveto
          -33 -73 -61 -90 0 vvcurveto
          72 -62 -64 callsubr
          endchar
        </CharString>
        <CharString name="quotedblleft">
          -251 11 callsubr
          113 273 106 272 vstem
          492 907 rmoveto
          -76 66 -63 73 76 57 51 76 37 -16 33 -27 22 vhcurveto
          -20 -56 callsubr
          -379 hmoveto
          -49 callsubr
        </CharString>
        <CharString name="quotedblright">
          -265 11 callsubr
          121 272 106 273 -53 callsubr
          379 hmoveto
          -19 callsubr
          -58 -51 -76 -37 17 -33 26 -22 vhcurveto
          21 -16 27 -9 24 -2 rrcurveto
          -33 -73 -61 -91 0 vvcurveto
          72 -61 -64 callsubr
          endchar
        </CharString>
        <CharString name="quoteleft">
          -630 11 callsubr
          113 273 vstem
          113 907 rmoveto
          -49 callsubr
        </CharString>
        <CharString name="quoteright">
          -644 11 callsubr
          121 272 -53 callsubr
          endchar
        </CharString>
        <CharString name="quotesinglbase">
          -68 callsubr
        </CharString>
        <CharString name="quotesingle">
          -717 846 -21 381 -20 hstem
          165 825 4 callsubr
          endchar
        </CharString>
        <CharString name="r">
          -249 0 127 649 133 hstem
          273 72 callsubr
          76 780 rmoveto
          197 -67 rlineto
          -586 24 callsubr
          532 127 -200 580 vlineto
          0 119 69 133 vhcurveto
          20 -114 133 28 -35 215 rlineto
          0 -6 4 -71 -168 -125 -69 -27 -41 vhcurveto
          -273 94 rlineto
          endchar
        </CharString>
        <CharString name="registered">
          158 209 102 150 90 -90 301 174 88 135 105 hstemhm
          118 119 170 469 -385 102 178 105 178 119 hintmask 1101111001000000
          118 735 rmoveto
          -303 225 -223 303 304 223 223 303 303 -223 226 -304 -303 -225 -226 -303 vhcurveto
          119 -8 rmoveto
          244 164 188 243 240 170 -188 -244 -235 -170 -181 -240 -243 -164 181 235 vhcurveto
          700 -176 rmoveto
          -90 hlineto
          -78 137 rlineto
          66 23 41 51 82 vvcurveto
          123 -51 57 -160 vhcurveto
          -258 -88 hlineto
          hintmask 1101110111000000
          84 -385 hlineto
          hintmask 1101111001000000
          -84 -90 246 90 -62 119 72 hlineto
          115 -209 rlineto
          159 hlineto
          -274 475 rmoveto
          hintmask 1011110111000000
          65 43 -12 -82 -70 -55 -10 -49 hvcurveto
          -74 174 hlineto
          endchar
        </CharString>
        <CharString name="ring">
          -639 1280 33 callsubr
          hstem
          68 33 callsubr
          vstem
          68 1456 -78 callsubr
        </CharString>
        <CharString name="s">
          -165 -15 callsubr
          hstem
          105 146 473 151 vstem
          855 657 rmoveto
          -39 192 rlineto
          47 -96 -78 13 -170 hhcurveto
          -232 -135 -99 -159 -173 82 -68 203 -20 hvcurveto
          205 -21 rlineto
          90 -10 39 -50 -59 vvcurveto
          -96 -76 -54 -156 -85 -82 7 37 -72 vhcurveto
          -23 137 -133 -29 38 -214 rlineto
          -55 105 120 -14 136 hhcurveto
          218 161 97 184 177 -95 77 -191 20 hvcurveto
          -179 19 rlineto
          -112 12 -47 25 82 vvcurveto
          87 74 29 161 96 78 -22 -15 41 vhcurveto
          21 -112 rlineto
          endchar
        </CharString>
        <CharString name="section">
          -133 -193 134 1179 117 hstem
          129 153 445 151 vstem
          837 975 rmoveto
          -32 182 rlineto
          0 -25 17 -41 16 vhcurveto
          22 -55 -88 25 -103 hhcurveto
          -231 -133 -115 -149 -133 84 -64 104 -41 hvcurveto
          -75 -18 -123 -55 -142 vvcurveto
          -174 159 -59 160 -45 vhcurveto
          125 -35 164 -23 -108 vvcurveto
          -86 -129 -49 -100 -109 -64 24 25 -34 vhcurveto
          -23 127 -125 -25 33 -180 rlineto
          -2 4 125 -103 205 hhcurveto
          178 190 109 178 115 -73 61 -109 45 hvcurveto
          60 27 135 98 105 vvcurveto
          170 -162 71 -221 58 vhcurveto
          -82 20 -144 45 84 vvcurveto
          84 99 43 127 86 59 -18 -15 35 vhcurveto
          25 -137 rlineto
          26 -432 rmoveto
          -76 -94 -65 -64 -25 vhcurveto
          -34 8 -35 11 -37 10 -82 20 -125 45 2 107 rrcurveto
          98 113 31 74 10 vhcurveto
          143 -35 139 -28 -111 vvcurveto
          endchar
        </CharString>
        <CharString name="semicolon">
          -579 -227 -21 471 432 0 254 hstemhm
          144 254 hintmask 10110000
          398 782 rmoveto
          -70 callsubr
          18 -698 rmoveto
          hintmask 11010000
          -89 callsubr
          endchar
        </CharString>
        <CharString name="seven">
          -196 30 callsubr
          182 938 rmoveto
          28 127 rlineto
          529 hlineto
          -265 -385 -127 -373 -38 -307 rrcurveto
          192 hlineto
          18 291 99 440 301 387 rrcurveto
          88 -834 vlineto
          -45 -237 rlineto
          endchar
        </CharString>
        <CharString name="six">
          -7 42 callsubr
          507 140 342 139 hstem
          113 183 565 168 vstem
          660 1098 rmoveto
          103 131 -76 2 2 hvcurveto
          75 119 rlineto
          0 -133 94 -182 -332 -211 -285 -352 -401 154 -230 317 361 84 250 143 310 -203 84 -207 -153 -121 -76 -72 -53 vhcurveto
          219 6 78 271 284 hhcurveto
          -41 -482 rmoveto
          164 78 -94 -160 -118 -84 -135 -178 -137 -142 47 315 -24 hvcurveto
          92 49 123 53 151 hhcurveto
          endchar
        </CharString>
        <CharString name="slash">
          -210 64 callsubr
          872 1206 16 callsubr
        </CharString>
        <CharString name="space">
          -618 endchar
        </CharString>
        <CharString name="sterling">
          -116 -31 148 -62 62 -62 125 348 142 430 137 hstemhm
          269 164 -131 158 hintmask 01011010
          126 528 rmoveto
          168 hlineto
          4 -22 rlineto
          2 -19 2 -18 -16 vvcurveto
          -166 -113 -117 -61 -53 vhcurveto
          -23 -21 -20 -14 0 vvcurveto
          82 -109 rlineto
          9 10 94 73 90 hhcurveto
          60 51 -24 -21 41 hvcurveto
          hintmask 10011100
          -10 20 72 -31 90 hhcurveto
          57 72 23 24 53 hvcurveto
          39 19 35 26 0 vvcurveto
          hintmask 00111100
          -76 119 rlineto
          hintmask 10011100
          0 -73 -63 -93 vhcurveto
          hintmask 00111010
          -96 -76 63 -88 hhcurveto
          -26 -27 -4 -6 -25 hvcurveto
          50 55 39 78 117 vvcurveto
          16 0 17 -3 16 vhcurveto
          -6 59 rlineto
          281 142 -289 hlineto
          hintmask 10011100
          -6 108 -4 99 38 vvcurveto
          119 70 66 100 45 29 -8 -11 24 vhcurveto
          31 -188 137 18 -37 248 rlineto
          45 -61 -51 33 -119 hhcurveto
          -195 -137 -133 -193 -69 2 -80 6 -92 hvcurveto
          -151 hlineto
          endchar
        </CharString>
        <CharString name="t">
          -435 -31 127 656 127 215 -20 hstem
          208 157 vstem
          621 879 rmoveto
          -256 215 hlineto
          -157 -37 rlineto
          -178 -2 callsubr
          170 -447 vlineto
          -225 116 -111 189 78 61 23 0 vhcurveto
          -31 114 rlineto
          -2 -45 -10 -53 hhcurveto
          -164 10 8 179 110 vvcurveto
          357 256 vlineto
          endchar
        </CharString>
        <CharString name="thorn">
          -47 -16 callsubr
          426 -20 hstem
          160 159 510 -22 callsubr
          491 56 callsubr
          62 63 callsubr
          203 293 287 -180 157 -258 -90 -82 -30 -35 -64 hvcurveto
          385 vlineto
          -311 106 -41 -131 193 -63 rlineto
          -1440 24 callsubr
          503 vlineto
          54 526 rmoveto
          -146 29 callsubr
          0 88 76 146 184 92 -106 -207 -215 -96 -150 -188 vhcurveto
          endchar
        </CharString>
        <CharString name="three">
          -74 -31 142 440 141 404 59 callsubr
          741 174 -145 145 -145 174 hintmask 11100100
          71 111 rmoveto
          0 148 -142 278 324 123 181 182 174 -121 106 -107 21 vhcurveto
          hintmask 11110000
          90 29 109 83 146 vvcurveto
          209 -174 137 -248 -266 -119 -139 -2 -2 vhcurveto
          121 -111 4 4 92 109 166 -2 rlinecurve
          109 -2 143 -39 -164 vvcurveto
          -146 -92 -53 -148 vhcurveto
          -139 -141 94 hlineto
          hintmask 11101000
          103 211 8 -229 -121 -91 -98 -176 hvcurveto
          -196 -129 116 -2 hhcurveto
          endchar
        </CharString>
        <CharString name="threequarters">
          483 -135 -21 156 98 105 98 156 104 244 106 222 104 98 -20 hstem
          471 144 702 118 vstem
          66 -81 callsubr
          1407 -432 -40 callsubr
          -105 -129 -98 359 98 -113 105 vlineto
          -250 1132 -21 callsubr
          endchar
        </CharString>
        <CharString name="threesuperior">
          -357 457 104 244 106 222 104 hstem
          513 144 vstem
          108 -81 callsubr
          endchar
        </CharString>
        <CharString name="tilde">
          49 592 1196 -91 callsubr
        </CharString>
        <CharString name="two">
          -44 -42 callsubr
          957 139 hstem
          743 71 callsubr
          284 141 rmoveto
          80 271 553 104 363 vvcurveto
          206 -164 152 -266 vhcurveto
          -260 -127 -152 2 hhcurveto
          117 -110 rlineto
          0 102 123 168 189 67 -121 -98 -2 vhcurveto
          -4 -326 -559 -45 -96 -418 34 -90 rcurveline
          758 hlineto
          152 250 -117 61 -106 -170 rlineto
          endchar
        </CharString>
        <CharString name="twosuperior">
          -324 475 104 553 105 hstem
          517 127 vstem
          267 579 -73 callsubr
          endchar
        </CharString>
        <CharString name="u">
          -8 callsubr
          15 callsubr
          hintmask 10110100
          676 35 callsubr
          hintmask 10110010
          -59 callsubr
          hintmask 10101100
          -46 callsubr
          hintmask 01110100
          -27 callsubr
          endchar
        </CharString>
        <CharString name="uacute">
          -8 callsubr
          456 -20 15 callsubr
          hintmask 10111010
          676 35 callsubr
          hintmask 10111001
          -59 callsubr
          hintmask 10110110
          -46 callsubr
          hintmask 01111010
          -27 callsubr
          -149 170 -57 callsubr
          endchar
        </CharString>
        <CharString name="ucircumflex">
          106 250 51 117 195 endchar
        </CharString>
        <CharString name="udieresis">
          -8 callsubr
          165 230 hstemhm
          41 -13 callsubr
          -70 22 callsubr
          -49 160 hintmask 1011100010000000
          676 35 callsubr
          -59 callsubr
          hintmask 1011010100000000
          -46 callsubr
          hintmask 0111001010000000
          -27 callsubr
          -143 280 -72 callsubr
          hintmask 1011100100000000
          -80 callsubr
        </CharString>
        <CharString name="ugrave">
          106 -2 2 117 193 endchar
        </CharString>
        <CharString name="underscore">
          79 -180 40 callsubr
          136 -180 rmoveto
          940 141 -940 hlineto
          endchar
        </CharString>
        <CharString name="uni00AD">
          -348 481 154 hstem
          659 481 rmoveto
          154 -533 -154 vlineto
          endchar
        </CharString>
        <CharString name="v">
          94 21 -21 752 127 hstem
          28 35 callsubr
          170 hlineto
          326 -752 rlineto
          180 hlineto
          336 752 rlineto
          160 20 callsubr
          90 hlineto
          -258 -611 -258 611 rlineto
          95 127 -431 hlineto
          endchar
        </CharString>
        <CharString name="w">
          532 21 -21 752 127 hstem
          30 35 callsubr
          172 hlineto
          278 -752 rlineto
          158 hlineto
          200 553 184 -553 rlineto
          155 hlineto
          285 752 rlineto
          174 127 -401 -127 90 hlineto
          -211 -568 -188 570 rlineto
          -155 hlineto
          -203 -566 -208 564 rlineto
          92 127 -422 hlineto
          endchar
        </CharString>
        <CharString name="x">
          114 -32 callsubr
          hstemhm
          72 434 -434 465 208 410 -410 447 hintmask 11100100
          725 hmoveto
          467 127 -172 hlineto
          -289 303 270 322 rlineto
          hintmask 11011000
          154 20 callsubr
          91 hlineto
          -191 -232 -219 232 rlineto
          111 127 -465 -127 153 hlineto
          291 -308 -266 -317 rlineto
          -178 -127 hlineto
          hintmask 11101000
          434 127 -90 hlineto
          188 223 213 -223 rlineto
          -92 hlineto
          endchar
        </CharString>
        <CharString name="y">
          55 callsubr
          hstem
          -77 callsubr
          endchar
        </CharString>
        <CharString name="yacute">
          55 444 41 121 194 endchar
        </CharString>
        <CharString name="ydieresis">
          55 callsubr
          165 230 hstem
          304 22 callsubr
          vstem
          -77 callsubr
          504 280 -90 callsubr
        </CharString>
        <CharString name="yen">
          305 -42 callsubr
          129 119 94 119 463 40 callsubr
          637 163 vstem
          61 39 callsubr
          hlineto
          375 -463 rlineto
          -307 -119 336 -94 -336 -119 336 -129 -9 callsubr
          2 129 rlineto
          334 119 -334 94 334 119 -308 hlineto
          355 463 -60 callsubr
          endchar
        </CharString>
        <CharString name="z">
          -179 -32 callsubr
          hstem
          228 637 rmoveto
          21 115 rlineto
          393 hlineto
          -539 -643 rlineto
          -109 729 vlineto
          43 225 -137 25 -22 -123 rlineto
          -430 hlineto
          544 649 rlineto
          103 -696 vlineto
          -39 -213 rlineto
          endchar
        </CharString>
        <CharString name="zero">
          69 -14 callsubr
          hstem
          119 177 612 176 vstem
          296 602 rmoveto
          406 135 90 172 170 135 -90 -406 -401 -135 -92 -170 -172 -135 92 401 vhcurveto
          788 hmoveto
          475 -197 160 -286 -285 -197 -160 -475 -471 197 -162 285 286 197 162 471 vhcurveto
          endchar
        </CharString>
</ttFont>
